<?xml version="1.0" standalone="no"?>
<!DOCTYPE svg PUBLIC "-//W3C//DTD SVG 20010904//EN"
 "http://www.w3.org/TR/2001/REC-SVG-20010904/DTD/svg10.dtd">
<svg version="1.0" xmlns="http://www.w3.org/2000/svg"
 width="600.000000pt" height="357.000000pt" viewBox="0 0 600.000000 357.000000"
 preserveAspectRatio="xMidYMid meet">
<g transform="translate(0.000000,357.000000) scale(0.100000,-0.100000)"
fill="#000000" stroke="none">
<path d="M731 2693 c-56 -112 -302 -813 -301 -860 1 -17 1 -17 15 0 7 11 16
36 20 56 6 35 9 38 57 51 28 7 80 27 117 46 36 18 67 31 69 30 2 -2 -2 -84 -7
-181 -14 -226 -14 -328 -1 -320 6 4 10 60 10 133 1 70 5 185 9 255 l8 128 34
29 c19 17 28 29 20 30 -8 0 -23 -7 -33 -17 -21 -19 -21 -23 -8 103 22 224 41
508 36 530 -9 34 -23 30 -45 -13z m25 -95 c-3 -57 -14 -204 -23 -326 l-17
-224 -42 -24 c-45 -27 -147 -64 -175 -64 -16 0 -8 31 62 238 45 130 101 287
126 347 25 61 49 120 54 133 17 44 22 20 15 -80z"/>
<path d="M2625 2433 c-4 -16 -15 -92 -25 -171 -20 -161 -38 -200 -129 -285
-43 -41 -109 -83 -115 -75 -2 2 5 73 15 158 27 240 34 354 21 346 -7 -4 -12
-26 -12 -49 0 -43 -40 -460 -45 -465 -1 -1 -25 -5 -54 -9 -69 -8 -66 -27 3
-21 54 5 55 4 50 -21 -7 -42 -22 -315 -17 -323 13 -22 18 1 19 80 0 48 4 130
8 184 8 95 8 96 38 109 50 21 125 85 164 142 l36 52 -6 -40 c-3 -22 -11 -115
-17 -208 -16 -245 0 -282 45 -104 44 171 124 307 183 307 45 0 57 -51 60 -264
3 -181 9 -216 35 -216 5 0 3 10 -4 23 -9 15 -13 77 -13 207 0 164 -3 190 -20
225 -58 117 -177 -1 -249 -245 l-25 -85 0 65 c-1 137 28 373 54 455 33 100 47
255 23 255 -9 0 -19 -12 -23 -27z m15 -94 c-14 -101 -32 -156 -24 -74 7 70 24
158 30 152 2 -2 0 -37 -6 -78z"/>
<path d="M3624 2371 c-98 -45 -184 -158 -184 -244 0 -71 21 -109 102 -184 202
-188 236 -234 223 -294 -7 -33 -53 -82 -96 -104 -51 -27 -142 -46 -187 -39
-24 4 -57 18 -73 31 -28 24 -29 29 -23 72 6 42 6 45 -9 32 -10 -8 -17 -28 -17
-51 0 -77 94 -123 207 -100 147 31 238 120 213 208 -15 55 -59 107 -173 207
-117 104 -147 148 -147 218 0 144 194 292 308 233 35 -18 52 -20 52 -6 0 18
-59 40 -107 40 -26 0 -67 -9 -89 -19z"/>
<path d="M987 2353 c-3 -5 -5 -161 -5 -348 -1 -187 -5 -389 -9 -448 -8 -104
-4 -143 11 -118 4 6 9 190 12 409 2 218 6 423 8 455 4 50 -4 72 -17 50z"/>
<path d="M2130 2286 c0 -9 7 -16 16 -16 17 0 14 22 -4 28 -7 2 -12 -3 -12 -12z"/>
<path d="M4746 2238 c-44 -489 -51 -713 -23 -764 15 -30 44 -50 55 -39 3 2 -5
12 -17 22 -47 38 -51 139 -21 498 11 132 23 264 26 293 4 33 3 52 -4 52 -6 0
-13 -28 -16 -62z"/>
<path d="M1940 2053 c-5 -21 -30 -123 -55 -228 -83 -346 -117 -362 -136 -65
-12 182 -15 200 -33 200 -16 0 -34 -42 -81 -185 -43 -129 -72 -195 -85 -195
-12 0 -13 30 -10 289 2 148 -1 202 -9 197 -12 -8 -16 -460 -5 -490 7 -19 37
-21 52 -3 6 7 36 86 66 175 30 89 59 170 64 179 7 11 12 -20 16 -103 8 -141
22 -249 37 -276 16 -30 51 -19 71 24 24 50 136 508 127 514 -5 2 -13 -12 -19
-33z"/>
<path d="M2098 2030 c-3 -8 -9 -71 -12 -140 -3 -69 -9 -182 -13 -251 -4 -90
-3 -128 6 -133 8 -5 11 19 11 87 0 52 5 152 11 223 10 129 9 242 -3 214z"/>
<path d="M4297 1993 c-13 -21 -46 -197 -57 -305 -15 -153 5 -225 61 -211 45
12 119 139 189 325 19 49 35 86 37 84 2 -2 -1 -72 -8 -155 -6 -84 -8 -176 -4
-206 6 -49 24 -85 43 -85 16 0 52 32 52 46 0 20 -10 18 -37 -7 -22 -21 -23
-21 -30 -3 -11 25 -10 224 1 352 7 86 6 102 -6 102 -9 0 -29 -37 -53 -97 -91
-235 -173 -364 -210 -333 -34 29 -27 205 16 393 20 83 22 126 6 100z"/>
<path d="M4008 1952 c-95 -63 -174 -245 -166 -387 3 -61 8 -79 25 -97 32 -32
83 -29 134 8 95 66 154 205 154 361 0 84 -2 94 -24 115 -19 19 -23 20 -18 5 6
-17 5 -17 -15 -2 -29 20 -57 19 -90 -3z m84 -29 c15 -14 21 -14 27 -4 20 32
28 -90 12 -175 -25 -131 -102 -250 -177 -274 -112 -37 -135 145 -42 331 58
116 132 166 180 122z"/>
<path d="M5034 1583 c-31 -141 -91 -318 -141 -417 -31 -61 -38 -95 -14 -70 25
26 125 293 157 418 8 34 17 69 20 79 3 9 1 17 -5 17 -6 0 -13 -12 -17 -27z"/>
</g>
</svg>
