<?xml version="1.0" standalone="no"?>
<!DOCTYPE svg PUBLIC "-//W3C//DTD SVG 20010904//EN"
 "http://www.w3.org/TR/2001/REC-SVG-20010904/DTD/svg10.dtd">
<svg version="1.0" xmlns="http://www.w3.org/2000/svg"
 width="600.000000pt" height="192.000000pt" viewBox="0 0 600.000000 192.000000"
 preserveAspectRatio="xMidYMid meet">
<g transform="translate(0.000000,192.000000) scale(0.100000,-0.100000)"
fill="#000000" stroke="none">
<path d="M2707 1713 c-3 -10 -5 -58 -6 -108 -2 -116 -25 -392 -57 -670 -32
-285 -41 -441 -26 -431 7 4 12 35 12 79 0 40 11 176 25 302 26 233 58 583 70
753 4 59 3 92 -4 92 -5 0 -12 -8 -14 -17z"/>
<path d="M1810 1708 c-10 -130 -86 -498 -102 -498 -4 0 -8 4 -8 8 0 5 -11 14
-25 20 -60 27 -143 -45 -210 -183 -107 -217 -137 -472 -60 -507 84 -38 197
162 285 502 12 47 24 92 27 100 3 8 7 22 8 30 4 30 48 220 51 218 1 -2 -4 -82
-12 -178 -17 -214 -20 -547 -4 -614 14 -61 27 -86 45 -86 19 0 19 8 0 26 -32
32 -40 95 -39 319 1 238 25 594 49 719 18 91 19 126 5 126 -5 0 -10 -1 -10 -2z
m-127 -520 c21 -28 21 -29 2 -100 -36 -141 -94 -309 -136 -388 -43 -83 -99
-143 -127 -138 -26 5 -42 48 -42 115 0 184 114 462 215 525 39 24 63 20 88
-14z"/>
<path d="M5370 1590 c-6 -23 -22 -114 -34 -203 -20 -135 -31 -181 -68 -276
-41 -104 -48 -116 -76 -125 -33 -11 -40 -33 -9 -29 9 2 17 0 17 -3 0 -17 -90
-166 -143 -236 -114 -151 -246 -220 -335 -174 -45 23 -57 58 -57 165 0 74 6
112 24 166 57 169 157 309 218 307 16 0 35 -2 42 -4 25 -6 22 18 -4 30 -37 17
-81 -4 -134 -64 -50 -57 -122 -201 -147 -294 -24 -90 -25 -225 -1 -268 54
-100 181 -92 311 20 65 56 152 175 207 281 37 72 48 86 73 91 16 3 31 5 32 3
2 -2 -1 -82 -7 -178 -11 -184 -9 -281 4 -277 4 2 9 103 12 225 2 123 6 226 9
231 3 5 63 17 133 27 70 10 132 22 138 27 14 13 -50 9 -163 -10 l-104 -18 7
90 c8 109 13 136 55 290 33 125 44 236 23 243 -7 3 -16 -13 -23 -37z m5 -131
c-18 -90 -33 -124 -21 -46 18 114 30 170 34 153 2 -10 -4 -59 -13 -107z m-75
-374 c-5 -43 -11 -79 -12 -81 -2 -1 -16 -6 -31 -9 l-29 -8 20 39 c10 22 27 63
37 91 11 29 20 51 22 49 2 -1 -2 -38 -7 -81z"/>
<path d="M392 1279 c-79 -40 -162 -170 -217 -339 -37 -113 -46 -286 -18 -340
40 -76 118 -60 185 40 46 69 107 212 170 400 26 80 46 129 43 110 -12 -88 -17
-496 -6 -523 16 -40 40 -46 65 -14 22 28 29 45 127 307 66 177 126 303 140
294 13 -8 10 -151 -6 -309 -28 -270 -28 -275 -17 -275 6 0 16 19 22 43 28 111
105 331 143 407 47 94 124 184 150 174 34 -13 41 -63 44 -329 4 -281 5 -296
29 -319 25 -26 38 -7 13 20 -22 23 -22 29 -23 291 -1 247 -3 271 -21 308 -29
57 -61 59 -113 5 -66 -67 -156 -257 -203 -428 -12 -45 -24 -81 -25 -79 -2 2 3
56 11 122 25 197 30 356 12 380 -13 17 -17 18 -33 5 -25 -21 -81 -147 -159
-355 -36 -99 -78 -200 -92 -224 -23 -40 -27 -43 -39 -27 -28 39 -27 236 3 569
7 84 -9 90 -32 10 -142 -492 -281 -718 -369 -600 -18 25 -21 41 -20 125 3 168
81 378 179 479 57 58 91 71 149 55 44 -12 66 -3 42 17 -28 24 -88 24 -134 0z"/>
<path d="M3930 1246 c-42 -29 -90 -93 -131 -178 l-30 -63 3 95 c2 58 -1 96 -7
98 -6 1 -12 -57 -16 -150 -3 -84 -11 -169 -18 -188 -30 -94 -48 -348 -43 -618
1 -86 5 -113 15 -110 12 5 16 50 32 355 8 141 8 142 29 128 51 -36 167 3 232
78 88 102 137 229 138 352 0 93 -14 143 -56 191 -25 28 -37 34 -72 34 -27 0
-53 -8 -76 -24z m122 -7 c29 -15 58 -88 64 -161 15 -162 -93 -376 -219 -437
-52 -25 -78 -26 -118 -5 l-30 15 7 142 c5 113 11 155 30 206 55 147 142 251
209 251 20 0 45 -5 57 -11z m-322 -641 c-19 -319 -29 -377 -25 -148 3 181 21
378 33 365 3 -2 -1 -100 -8 -217z"/>
<path d="M4377 1186 c-120 -119 -254 -548 -191 -610 57 -58 135 48 248 339 83
212 77 207 69 65 -5 -69 -8 -193 -8 -277 0 -131 2 -155 17 -170 20 -19 37 -11
19 10 -24 29 -31 116 -21 260 24 329 24 350 9 345 -8 -3 -40 -72 -71 -154
-125 -324 -230 -485 -254 -388 -19 75 48 329 122 461 52 94 110 144 129 113 9
-15 35 -12 35 5 0 16 -30 35 -54 35 -8 0 -31 -15 -49 -34z"/>
<path d="M3101 1194 c-57 -40 -132 -196 -182 -379 l-19 -70 5 80 c16 272 18
358 5 353 -10 -3 -14 -46 -17 -179 -2 -95 -8 -218 -13 -273 -6 -54 -10 -111
-10 -127 0 -47 18 -33 25 18 30 220 122 467 201 544 l35 34 19 -23 c10 -12 22
-48 26 -79 7 -58 0 -281 -12 -385 -5 -42 -3 -58 5 -58 6 0 13 6 15 13 3 6 21
71 40 142 55 197 150 375 201 375 9 0 23 -16 31 -35 17 -40 33 -230 34 -382 0
-108 10 -153 34 -153 12 0 12 4 -1 30 -11 23 -17 88 -23 248 -8 209 -16 268
-41 298 -53 64 -156 -80 -241 -336 -21 -63 -36 -104 -33 -90 3 14 8 88 11 165
7 149 -3 235 -33 267 -20 22 -32 23 -62 2z"/>
</g>
</svg>
