<?xml version="1.0" standalone="no"?>
<!DOCTYPE svg PUBLIC "-//W3C//DTD SVG 20010904//EN"
 "http://www.w3.org/TR/2001/REC-SVG-20010904/DTD/svg10.dtd">
<svg version="1.0" xmlns="http://www.w3.org/2000/svg"
 width="600.000000pt" height="393.000000pt" viewBox="0 0 600.000000 393.000000"
 preserveAspectRatio="xMidYMid meet">
<g transform="translate(0.000000,393.000000) scale(0.100000,-0.100000)"
fill="#000000" stroke="none">
<path d="M956 3279 c-125 -30 -289 -172 -364 -317 -51 -97 -76 -209 -66 -292
17 -138 79 -230 276 -407 151 -137 209 -197 257 -267 76 -111 93 -231 45 -322
-66 -126 -231 -240 -426 -294 -152 -42 -265 -18 -317 66 -29 48 -41 55 -41 23
0 -32 36 -76 88 -106 41 -24 57 -28 122 -27 180 2 399 101 528 238 114 121
129 242 46 392 -41 76 -130 172 -291 316 -140 125 -212 213 -244 297 -17 47
-20 73 -17 156 3 91 7 107 40 178 108 226 295 361 479 343 69 -7 97 4 60 23
-23 13 -120 13 -175 0z"/>
<path d="M1566 3248 c-5 -24 -9 -72 -26 -308 -19 -270 -51 -595 -59 -603 -12
-13 -205 -75 -255 -82 -56 -9 -86 -28 -69 -46 9 -9 37 -3 125 26 62 21 133 46
157 57 24 10 45 17 46 16 1 -2 -1 -37 -6 -78 -36 -344 -51 -740 -26 -740 9 0
12 43 12 182 0 101 9 287 19 414 l19 230 76 34 c42 18 139 65 215 103 l139 69
-6 -214 c-4 -117 -11 -247 -17 -288 -5 -41 -12 -160 -16 -264 -6 -160 -5 -188
7 -184 11 4 15 48 20 224 8 274 27 385 94 544 41 99 94 163 162 197 54 26 66
28 178 28 118 0 305 -8 305 -12 0 -2 -20 -29 -44 -60 -121 -160 -230 -417
-260 -612 -17 -111 -11 -173 19 -206 84 -90 187 54 396 557 52 126 97 228 102
228 4 0 5 -24 2 -52 -34 -353 -48 -787 -26 -850 13 -39 45 -58 64 -39 8 8 7
11 -5 11 -9 0 -23 17 -32 40 -21 53 -22 300 -1 535 8 94 16 217 17 275 3 92 1
105 -14 108 -21 4 -46 -45 -154 -308 -167 -408 -287 -573 -342 -470 -21 39 -9
197 23 304 50 168 145 360 242 487 l35 46 95 12 c52 6 105 16 117 22 57 30 70
63 38 92 -39 36 -114 15 -202 -54 l-53 -42 -126 9 c-198 14 -310 10 -362 -13
-96 -43 -167 -135 -215 -281 -15 -45 -28 -81 -30 -80 -1 2 2 37 6 78 15 126
12 226 -6 245 -20 19 -39 14 -118 -34 -63 -38 -299 -151 -316 -151 -5 0 -7 6
-5 13 5 14 30 258 45 447 6 74 18 198 27 275 9 77 16 149 17 159 2 28 -22 31
-28 4z m1353 -604 c17 -15 -70 -49 -154 -60 l-50 -7 27 22 c46 37 110 61 143
55 17 -4 32 -8 34 -10z"/>
<path d="M3326 3182 c-3 -5 -10 -93 -16 -197 -6 -104 -19 -285 -29 -404 -11
-119 -23 -254 -26 -300 l-7 -83 -104 7 c-91 6 -104 5 -104 -9 0 -22 39 -29
128 -24 l77 4 0 -240 c0 -236 7 -337 25 -366 17 -28 22 -1 9 57 -14 61 -20
535 -7 548 3 4 44 15 90 25 45 10 110 27 142 39 33 11 61 19 63 17 2 -2 -4
-32 -14 -67 -13 -47 -17 -101 -18 -199 0 -121 3 -140 24 -188 45 -100 114
-138 237 -130 87 6 191 52 266 118 25 22 48 40 51 40 2 0 7 -14 11 -31 3 -17
19 -44 35 -60 24 -23 38 -29 75 -29 l45 0 -63 -84 c-84 -111 -152 -238 -195
-361 -29 -85 -35 -118 -39 -217 -8 -197 35 -341 136 -449 65 -71 96 -89 153
-89 35 0 47 6 75 35 83 88 120 306 144 830 14 325 28 554 35 565 3 4 58 54
122 111 65 57 144 129 176 159 32 30 61 56 65 58 4 1 8 -44 9 -100 4 -219 86
-349 205 -323 68 15 168 155 213 295 27 86 32 78 18 -38 -7 -59 -15 -154 -19
-211 -7 -102 -8 -104 -37 -120 -90 -49 -277 -181 -338 -238 -85 -80 -153 -181
-187 -276 -36 -99 -37 -257 -4 -365 49 -159 116 -257 196 -287 38 -15 47 -15
78 -2 107 45 179 251 243 697 12 85 55 448 55 465 0 8 209 110 285 140 39 15
77 34 85 42 32 32 -54 3 -208 -72 -85 -41 -156 -74 -157 -73 -1 2 8 109 21
238 20 203 39 337 59 415 6 24 -9 50 -23 41 -6 -3 -13 -32 -17 -64 -22 -203
-125 -451 -218 -526 -78 -62 -155 -30 -199 83 -16 43 -22 84 -25 181 l-4 125
35 40 c46 51 66 94 66 138 0 33 -20 67 -39 67 -26 0 -71 -115 -71 -183 0 -35
-28 -66 -204 -224 -83 -76 -159 -146 -168 -157 -18 -19 -18 -19 -18 2 0 11 14
58 31 104 48 129 81 282 82 381 2 66 -1 90 -12 96 -47 29 -67 -47 -100 -369
-16 -164 -19 -179 -52 -240 -37 -71 -126 -173 -170 -196 -33 -17 -82 -18 -111
-3 -11 6 -29 31 -40 56 l-20 45 35 37 c100 105 198 312 231 490 21 111 2 154
-57 132 -91 -35 -227 -385 -227 -585 l0 -74 -62 -48 c-138 -104 -286 -140
-378 -92 -82 42 -121 133 -119 282 0 55 9 128 22 184 l22 93 60 27 c138 62
242 148 285 238 28 61 38 137 19 160 -43 52 -117 28 -199 -64 -50 -56 -122
-184 -155 -277 -10 -27 -23 -55 -29 -61 -17 -18 -168 -63 -263 -79 -52 -8 -50
-35 -23 265 11 124 27 306 35 405 8 99 18 208 21 243 5 41 3 62 -4 62 -6 0
-13 -4 -16 -8z m602 -504 c17 -17 15 -56 -4 -113 -25 -71 -126 -169 -231 -224
-46 -23 -83 -38 -83 -33 0 20 64 159 97 212 81 128 180 199 221 158z m668
-352 c-16 -93 -55 -231 -62 -223 -11 11 37 331 59 397 l12 35 3 -62 c2 -34 -4
-100 -12 -147z m-226 54 c-24 -139 -90 -294 -184 -429 l-51 -75 -3 49 c-9 141
92 428 187 525 l43 45 10 -25 c6 -16 5 -48 -2 -90z m615 78 c-4 -18 -16 -49
-26 -68 -24 -46 -26 -13 -3 53 18 54 39 64 29 15z m-485 -519 c-7 -11 -14 -19
-16 -16 -7 7 7 37 17 37 6 0 5 -9 -1 -21z m-10 -199 c-5 -91 -14 -266 -20
-390 -23 -481 -59 -689 -133 -775 -29 -33 -39 -38 -72 -37 -48 2 -105 40 -149
101 -191 262 -145 635 121 984 47 61 255 289 259 284 2 -1 -1 -77 -6 -167z
m800 -81 c-22 -196 -52 -418 -71 -527 -60 -354 -150 -534 -254 -508 -40 10
-109 79 -143 144 -74 139 -97 338 -53 473 37 116 129 238 258 340 63 51 265
181 270 175 2 -2 -1 -46 -7 -97z"/>
</g>
</svg>
