<?xml version="1.0" standalone="no"?>
<!DOCTYPE svg PUBLIC "-//W3C//DTD SVG 20010904//EN"
 "http://www.w3.org/TR/2001/REC-SVG-20010904/DTD/svg10.dtd">
<svg version="1.0" xmlns="http://www.w3.org/2000/svg"
 width="500.000000pt" height="500.000000pt" viewBox="0 0 500.000000 500.000000"
 preserveAspectRatio="xMidYMid meet">

<g transform="translate(0.000000,500.000000) scale(0.100000,-0.100000)"
fill="#000000" stroke="none">
<path d="M0 2500 l0 -2500 2500 0 2500 0 0 2500 0 2500 -2500 0 -2500 0 0
-2500z m4840 -10 l0 -2330 -2330 0 -2330 0 0 2330 0 2330 2330 0 2330 0 0
-2330z"/>
<path d="M2087 3913 c-3 -5 -203 -548 -445 -1208 -242 -660 -444 -1208 -447
-1217 -7 -17 4 -18 148 -18 l156 0 19 53 c11 28 66 184 123 345 l104 292 496
0 496 0 63 -177 c34 -98 90 -253 123 -345 l59 -168 155 0 c120 0 154 3 151 13
-3 6 -205 558 -449 1224 l-444 1213 -152 0 c-83 0 -154 -3 -156 -7z m359 -933
c106 -300 191 -546 190 -548 -2 -1 -181 -1 -398 0 l-396 3 189 535 c104 294
192 541 194 548 3 8 10 12 16 10 6 -2 98 -249 205 -548z"/>
<path d="M3516 1865 c-144 -51 -183 -249 -69 -357 148 -141 397 1 352 202 -29
128 -158 200 -283 155z"/>
</g>
</svg>
