<svg version="1.0" xmlns="http://www.w3.org/2000/svg" width="400.000000pt" height="100.000000pt" viewBox="0 0 400.000000 100.000000" preserveAspectRatio="xMidYMid meet" style="width: 588.095px; height: auto;"> <g transform="translate(0.000000,100.000000) scale(0.066667,-0.066667)" fill="#000000" stroke="none" class="">   <path d="M1350 1136 l0 -65 -52 6 c-82 10 -128 -46 -128 -158 0 -133 65 -193 157 -145 23 11 38 13 38 4 0 -8 21 -13 48 -10 l47 5 1 210 2 210 -57 4 -56 5 0 -66z m-3 -211 c4 -54 -1 -72 -20 -80 -46 -17 -70 69 -36 132 26 48 51 24 56 -52z"></path> <path d="M1815 984 l0 -216 111 0 c130 -1 156 13 174 94 34 152 -45 259 -151 202 -27 -14 -29 -10 -29 60 l0 76 -52 0 -53 0 0 -216z m173 -62 c0 -64 -5 -74 -30 -74 -34 0 -48 56 -31 122 18 71 61 37 61 -48z"></path> <path d="M3315 982 l0 -217 71 2 c39 1 78 1 87 -2 79 -21 127 39 127 160 0 133 -60 188 -151 139 -27 -14 -29 -10 -29 60 l0 76 -52 0 -53 0 0 -218z m173 -61 c0 -63 -5 -73 -30 -73 -37 0 -54 123 -20 144 36 23 50 4 50 -71z"></path> <path d="M4690 1135 l9 -68 -58 8 c-89 12 -134 -42 -133 -160 1 -127 63 -186 148 -142 23 12 42 14 47 6 5 -8 29 -14 53 -14 l45 0 -4 214 -4 214 -57 4 -56 5 10 -67z m-2 -213 c0 -64 -5 -74 -30 -74 -32 0 -51 86 -32 137 21 54 62 13 62 -63z"></path> <path d="M5789 1194 c-4 -4 -3 -96 1 -206 l8 -200 41 -20 c78 -37 136 20 79 77 -18 18 -23 61 -23 189 l0 166 -50 0 c-27 0 -53 -3 -56 -6z"></path>  <path d="M2460 1103 c0 -21 -7 -38 -15 -38 -8 0 -15 -17 -15 -37 0 -21 6 -38 13 -38 7 0 17 -42 21 -93 6 -65 17 -99 35 -113 31 -22 135 -26 148 -4 13 20 -19 75 -41 71 -36 -7 -32 134 3 143 42 11 42 71 1 71 -22 0 -30 10 -30 38 0 33 -6 37 -60 37 -54 0 -60 -4 -60 -37z"></path> <path d="M1565 1062 c-73 -35 -91 -197 -28 -260 43 -43 162 -52 211 -16 42 31 7 62 -71 62 -36 0 -64 7 -68 18 -5 14 19 19 87 19 l93 0 -9 64 c-14 108 -115 162 -215 113z m112 -91 c4 -19 -5 -26 -33 -26 -37 0 -52 27 -28 51 18 18 56 2 61 -25z"></path> <path d="M2194 1057 c-165 -115 14 -372 192 -276 50 26 13 67 -62 67 -38 0 -66 7 -70 18 -5 14 17 19 76 19 98 0 107 9 85 89 -26 98 -139 140 -221 83z m116 -82 c0 -20 -10 -30 -30 -30 -20 0 -30 10 -30 30 0 20 10 30 30 30 20 0 30 -10 30 -30z"></path> <path d="M2719 1057 c-74 -52 -80 -205 -9 -261 139 -109 313 54 228 214 -38 71 -150 95 -219 47z m124 -88 c17 -65 2 -121 -30 -121 -31 0 -51 86 -32 136 13 34 53 24 62 -15z"></path> <path d="M3137 1066 c-12 -7 -47 -9 -79 -5 l-58 8 0 -152 0 -152 53 0 52 0 0 111 c0 81 6 113 21 119 34 13 39 -3 39 -120 l0 -110 53 0 52 0 0 124 c0 166 -49 231 -133 177z"></path> <path d="M3695 1058 c-119 -84 -63 -293 79 -293 110 0 156 46 156 156 0 132 -132 209 -235 137z m112 -71 c21 -21 24 -100 4 -130 -35 -57 -87 42 -60 113 15 39 30 43 56 17z"></path> <path d="M4004 1036 c-102 -102 -41 -271 97 -271 105 0 152 48 152 158 0 149 -146 216 -249 113z m136 -70 c28 -71 -26 -166 -61 -109 -20 30 -17 109 4 130 27 27 41 22 57 -21z"></path> <path d="M4421 1054 c-16 -16 -26 -19 -26 -7 0 11 -21 18 -52 18 l-53 0 0 -151 0 -151 56 5 57 5 7 90 c6 74 13 92 40 104 31 13 49 49 50 94 0 28 -49 23 -79 -7z"></path> <path d="M4881 1045 c-144 -124 41 -373 194 -261 47 34 16 72 -49 62 -40 -6 -60 -2 -75 15 -18 22 -10 24 72 24 l92 0 0 61 c0 122 -139 181 -234 99z m129 -70 c0 -22 -10 -30 -37 -30 -41 0 -42 1 -29 36 14 35 66 30 66 -6z"></path> <path d="M5276 1054 c-16 -16 -26 -19 -26 -7 0 11 -21 18 -52 18 l-53 0 0 -150 0 -150 60 0 60 0 0 87 c0 89 17 123 61 123 18 0 28 16 32 53 7 60 -35 74 -82 26z"></path> <path d="M5612 1066 c-12 -7 -47 -9 -79 -5 l-58 8 0 -152 0 -152 53 0 52 0 0 103 c0 68 7 109 20 120 32 27 40 4 40 -113 l0 -110 53 0 52 0 0 128 c0 173 -44 230 -133 173z"></path> <path d="M5351 868 c-38 -21 -33 -86 8 -102 40 -16 95 28 81 64 -13 35 -59 55 -89 38z"></path>                                   </g> </svg>