<svg xmlns="http://www.w3.org/2000/svg" xmlns:xlink="http://www.w3.org/1999/xlink" version="1.1" id="Layer_1" x="0px" y="0px" viewBox="270 170 300 200" enable-background="new 0 0 841.89 595.28" xml:space="preserve" width="550px" height="200px">
<g>
	<path fill="#1E3C82" d="M149.402,177.499c-0.609-0.265-0.588-0.319-0.56-0.373c0.025-0.035,0.025-0.124,0.645,0   c14.222,2.233,178.644,40.989,178.644,85.595c0,38.256-99.657,74.732-100.585,73.146c-0.823-1.35,70.26-35.235,70.26-65.526   C297.805,228.79,161.813,182.684,149.402,177.499z"/>
	<path fill="#1E3C82" d="M148.485,226.731c0.55-1.149,119.855,26.146,119.855,58.584c0,23.851-61.83,51.588-62.364,50.553   c-0.498-1.033,41.009-25.967,41.009-42.414C246.985,259.151,147.941,227.877,148.485,226.731z"/>
	<path fill="#1E3C82" d="M148.485,270.573c0.138-0.615,73.656,13.826,73.656,36.004c0,12.744-36.297,30.221-36.741,29.291   c-0.495-0.939,21.351-13.527,21.351-24.178C206.751,290.751,148.427,270.935,148.485,270.573z"/>
	<path fill="#1E3C82" d="M238.104,355.806c54.54,0,90.98-2.678,90.98-4.051c0-1.365-36.44-4.045-90.98-4.045   s-91.023,2.68-91.023,4.045C147.081,353.128,183.564,355.806,238.104,355.806z"/>
</g>
<g>
	<path fill="#1E3C82" d="M396.319,260.137h24.416v74.152h30.381v21.444h-54.796V260.137z"/>
	<path fill="#1E3C82" d="M466.236,260.137l19.248,67.048h0.26l19.377-67.048h25.191l-32.039,95.597h-25.191l-31.908-95.597H466.236z   "/>
	<path fill="#1E3C82" d="M537.4,260.137h21.047l36.949,60.07l0.257-0.259l-1.031-59.812h23.383v95.597h-21.189l-36.429-58.133   l-0.261,0.129l0.647,58.004H537.4V260.137z"/>
	<path fill="#1E3C82" d="M635.719,260.137h24.417v74.152h30.38v21.444h-54.797V260.137z"/>
</g>
</svg>