<?xml version="1.0" encoding="UTF-8"?>
<svg version="1.1" xmlns="http://www.w3.org/2000/svg" width="491" height="290">
<path d="M0 0 C0.76531792 -0.00088371 1.53063583 -0.00176743 2.3191452 -0.00267792 C39.00907396 -0.04027387 39.00907396 -0.04027387 57.25 1.625 C57.94341492 1.68812378 58.63682983 1.75124756 59.35125732 1.81628418 C79.59704237 3.73602119 79.59704237 3.73602119 84.625 6.25 C84.69528445 24.65307116 84.74808295 43.05610716 84.78043652 61.45928383 C84.79586249 70.00545379 84.81686968 78.55154004 84.85131836 87.09765625 C84.88135219 94.55212094 84.90060598 102.00652496 84.90726548 109.46104848 C84.91115422 113.40302954 84.92020263 117.34483713 84.94219017 121.28676224 C84.96277715 125.00826715 84.96878974 128.72952959 84.96432304 132.45108604 C84.96552289 134.44513951 84.98154741 136.43916746 84.9982605 138.43315125 C84.91701255 162.51736482 75.24299643 181.39411814 58.625 198.25 C56.06019793 200.72103511 53.39048622 203.00656985 50.625 205.25 C49.70203125 205.99894531 48.7790625 206.74789062 47.828125 207.51953125 C36.24530126 216.74336907 23.745153 224.59785834 10.9375 232 C10.19540283 232.44279297 9.45330566 232.88558594 8.6887207 233.34179688 C5.52708029 235.12389772 3.357033 236.2324546 -0.30859375 236.3203125 C-4.72131369 234.78007649 -8.68337926 232.66466566 -12.75 230.375 C-13.62833496 229.88539795 -14.50666992 229.3957959 -15.41162109 228.89135742 C-42.97076451 213.28116026 -71.91763786 191.81119693 -81.375 160.25 C-83.50754883 152.12550293 -83.64793803 144.25942858 -83.60205078 135.89599609 C-83.60148551 134.47581999 -83.60180549 133.0556433 -83.60293579 131.63546753 C-83.60350578 127.80968321 -83.59180936 123.98402624 -83.57778788 120.15827131 C-83.56522097 116.14911018 -83.56410534 112.13994561 -83.56173706 108.13076782 C-83.55553971 100.55205593 -83.5391527 92.97340225 -83.51903808 85.39471591 C-83.49662453 76.761041 -83.48567197 68.1273632 -83.47564721 59.49366641 C-83.45478479 41.74574469 -83.41964301 23.99787704 -83.375 6.25 C-79.99880002 4.46003992 -77.31251566 3.83437519 -73.4921875 3.43359375 C-72.32300781 3.30919922 -71.15382813 3.18480469 -69.94921875 3.05664062 C-68.72847656 2.93482422 -67.50773437 2.81300781 -66.25 2.6875 C-64.50009766 2.49897461 -64.50009766 2.49897461 -62.71484375 2.30664062 C-41.82888208 0.14094102 -20.97325004 0.01107069 0 0 Z M-76.375 11.25 C-76.4687219 29.26190057 -76.53911499 47.27373727 -76.58224869 65.28582954 C-76.60281477 73.65043447 -76.63082046 82.01488728 -76.67675781 90.37939453 C-76.71680904 97.67564659 -76.74247601 104.97178841 -76.75135398 112.26814735 C-76.75653803 116.12635386 -76.76859568 119.98424519 -76.79792023 123.84235001 C-76.82537968 127.48511237 -76.83338458 131.12743433 -76.82743073 134.77029037 C-76.82902973 136.72142962 -76.85039087 138.67252258 -76.87268066 140.62353516 C-76.77002433 162.97497795 -65.89704022 179.41685319 -50.859375 194.828125 C-39.5895326 205.5448463 -26.54657705 214.23356862 -13.125 222 C-12.24408691 222.51353027 -11.36317383 223.02706055 -10.45556641 223.55615234 C-4.27890841 227.22392172 -4.27890841 227.22392172 2.625 228.25 C6.15811957 226.80178166 9.36171327 224.90996119 12.625 222.9375 C13.55618652 222.38860107 14.48737305 221.83970215 15.44677734 221.27416992 C23.15861165 216.66825057 30.50578984 211.72141343 37.625 206.25 C39.01332031 205.19619141 39.01332031 205.19619141 40.4296875 204.12109375 C58.33905093 190.0272034 73.68974532 173.50746498 77.625 150.25 C77.71147269 148.29208195 77.74702491 146.33157576 77.74525452 144.37174988 C77.74662918 143.19530914 77.74800385 142.01886841 77.74942017 140.80677795 C77.74582489 139.52500168 77.74222961 138.2432254 77.73852539 136.92260742 C77.73824317 135.55242922 77.73840194 134.18225087 77.7389679 132.81207275 C77.73925449 129.09966402 77.73337996 125.38728768 77.72639394 121.67488647 C77.72013753 117.79248071 77.71955479 113.9100742 77.71836853 110.02766418 C77.71526196 102.67901033 77.70705766 95.33037138 77.69701904 87.98172408 C77.68583697 79.61417568 77.68034217 71.24662656 77.67532361 62.87907255 C77.66487449 45.66937308 77.64728809 28.45968812 77.625 11.25 C59.14253547 8.82864681 41.04097299 7.0921421 22.390625 7.046875 C21.58536125 7.04404762 20.7800975 7.04122025 19.95043182 7.03830719 C15.67072745 7.02341552 11.39105577 7.01412854 7.11132812 7.00976562 C3.65613997 7.00542514 0.20120776 6.99169276 -3.25390625 6.96875 C-40.10941362 6.01037053 -40.10941362 6.01037053 -76.375 11.25 Z " fill="#FFFFFF" transform="translate(85.375,46.75)"/>
<path d="M0 0 C2.0625 1.875 2.0625 1.875 3 5 C3.03727191 10.60010423 2.05913692 15.7835198 0 21 C4.06368679 21.77403558 7.86425173 22.0984702 12 22 C12.0825 21.175 12.165 20.35 12.25 19.5 C13.66167604 12.91217847 16.5549455 7.14861296 22 3 C25.34840698 2.45332131 27.21285954 2.65961494 30.3125 4 C32.8628019 7.02258003 33.16754303 10.17564816 33 14 C31.24301461 19.49057936 27.6028615 22.75684595 23 26 C20.0625 27.375 20.0625 27.375 18 28 C17.52310878 33.72269462 18.24535042 38.44156913 22 43 C25.34448288 44.50160448 25.34448288 44.50160448 29 44 C32.69226417 42.15386791 35.0991883 40.0005672 37.625 36.8125 C40 34 40 34 42.1875 33.0625 C44 33 44 33 46 34 C45.90343844 38.7315162 45.23961186 41.22028254 41.9375 44.6875 C37.51372638 48.74642631 32.65305661 51.1156478 27 53 C27.061875 54.093125 27.12375 55.18625 27.1875 56.3125 C27 60 27 60 25.6953125 61.6328125 C14.42473698 70.72198631 -6.03135952 68.3425192 -19.53955078 68.31567383 C-22.86133653 68.312513 -26.18222988 68.33604863 -29.50390625 68.36132812 C-59.91295885 68.45418236 -59.91295885 68.45418236 -69 62 C-70.36952673 59.26094655 -70.12621361 57.02912668 -70 54 C-69.67 53.34 -69.34 52.68 -69 52 C-69.598125 51.79375 -70.19625 51.5875 -70.8125 51.375 C-73.89295011 49.43871707 -74.68696051 47.34825071 -76 44 C-76.1875 41.125 -76.1875 41.125 -76 39 C-73.525 38.505 -73.525 38.505 -71 38 C-68.125 42.75 -68.125 42.75 -67 45 C-65.5192152 42.0384304 -65.64685963 39.16493705 -65.4375 35.875 C-65.35371094 34.59367187 -65.26992187 33.31234375 -65.18359375 31.9921875 C-65.12300781 31.00476563 -65.06242187 30.01734375 -65 29 C-65.76828125 28.88527344 -66.5365625 28.77054688 -67.328125 28.65234375 C-70.99746949 27.75646578 -72.54739638 25.79324302 -75 23 C-76.86264843 19.27470314 -76.56041631 15.05664988 -76 11 C-73.57652227 7.43606217 -72.18884636 6.27244396 -68 5.3125 C-63.71221405 6.29511761 -62.40863221 8.42146072 -60 12 C-58.52583401 15.51531889 -58.92754714 19.23245128 -59 23 C-53.555 22.01 -53.555 22.01 -48 21 C-48.061875 19.63875 -48.12375 18.2775 -48.1875 16.875 C-48.19433681 12.53362476 -47.36017172 9.72180925 -45 6 C-43 4 -43 4 -39.1875 3.5625 C-35.78236185 3.661739 -34.970405 4.02034656 -32 6.0625 C-29.4675829 9.78198762 -29.30150274 11.576184 -30 16 C-32.5069544 20.91748748 -35.38001062 23.27000628 -40 26 C-36.72761471 33.29672293 -34.42497838 38.24670668 -26.6875 41.3125 C-22.31444614 40.94190221 -21.71177805 40.18811574 -18.8125 37.0625 C-15.48903304 32.94527297 -13.11134694 28.83850341 -11 24 C-11.639375 23.175 -12.27875 22.35 -12.9375 21.5 C-15.36574881 17.8142652 -16.21273251 14.40781762 -16 10 C-14.84375749 6.08162261 -13.87629652 3.77614835 -10.8125 1.0625 C-6.81021754 -0.44947337 -4.27920645 -0.55215567 0 0 Z M-7.6875 8.0625 C-9.37885915 10.12200772 -9.37885915 10.12200772 -8.6875 13.6875 C-8.460625 14.780625 -8.23375 15.87375 -8 17 C-7.34 17 -6.68 17 -6 17 C-4.68373308 13.38026598 -4 10.90432869 -4 7 C-6.05027772 6.82239558 -6.05027772 6.82239558 -7.6875 8.0625 Z M25 10 C22.43813976 12.88209277 20.57319849 15.13091017 20 19 C23.87952544 16.37051309 23.87952544 16.37051309 25.8125 12.25 C25.874375 11.5075 25.93625 10.765 26 10 C25.67 10 25.34 10 25 10 Z M-40 11 C-40.33 12.98 -40.66 14.96 -41 17 C-40.01 16.67 -39.02 16.34 -38 16 C-37.67 14.35 -37.34 12.7 -37 11 C-37.99 11 -38.98 11 -40 11 Z M-69 13 C-69.93065133 15.60582371 -70.14917407 16.64198224 -69.0625 19.25 C-68.711875 19.8275 -68.36125 20.405 -68 21 C-67.34 21 -66.68 21 -66 21 C-66.25561323 18.6568787 -66.59270772 16.32156597 -67 14 C-67.66 13.67 -68.32 13.34 -69 13 Z M-4 28 C-5.27875 29.918125 -6.5575 31.83625 -7.875 33.8125 C-10.9375 38.40625 -10.9375 38.40625 -14 43 C-13.04746338 43.08302368 -13.04746338 43.08302368 -12.07568359 43.16772461 C-9.17523849 43.42190369 -6.27512281 43.67967067 -3.375 43.9375 C-2.37597656 44.02451172 -1.37695312 44.11152344 -0.34765625 44.20117188 C4.47482126 44.63232053 9.23730947 45.09785214 14 46 C13.690625 45.236875 13.38125 44.47375 13.0625 43.6875 C11.64881193 38.78117081 11.37258659 34.0920168 11 29 C6.05 28.67 1.1 28.34 -4 28 Z M-58 30 C-58.33 35.61 -58.66 41.22 -59 47 C-56.03986524 46.55149473 -53.08227091 46.09170133 -50.125 45.625 C-49.28324219 45.49867188 -48.44148438 45.37234375 -47.57421875 45.2421875 C-46.76855469 45.11328125 -45.96289062 44.984375 -45.1328125 44.8515625 C-44.38918457 44.73635254 -43.64555664 44.62114258 -42.87939453 44.50244141 C-40.77385645 44.10751677 -40.77385645 44.10751677 -39 42 C-39.5775 41.360625 -40.155 40.72125 -40.75 40.0625 C-43.52918023 36.2797269 -45.22861611 32.32481492 -47 28 C-50.88929729 27.87873219 -50.88929729 27.87873219 -58 30 Z M-63 57 C-57.09018151 59.98351832 -51.75131328 60.71378337 -45.1875 61.1875 C-44.1663208 61.26645508 -43.1451416 61.34541016 -42.09301758 61.42675781 C-28.43615711 62.41284354 -15.09502184 62.12445285 -1.4375 61.1875 C-0.34268311 61.11756836 0.75213379 61.04763672 1.88012695 60.97558594 C8.3885039 60.4749032 13.89954977 59.33647884 20 57 C17.00968227 52.5145234 13.1012518 52.15551752 8 51 C4.46683725 50.42956199 0.94222974 50.08866441 -2.625 49.8125 C-3.5850293 49.73354492 -4.54505859 49.65458984 -5.53417969 49.57324219 C-35.80123733 46.76414811 -35.80123733 46.76414811 -63 57 Z " fill="#FFFFFF" transform="translate(105,132)"/>
<path d="M0 0 C4.59936798 4.9359071 4.87735567 9.5719015 4.9765625 16.11328125 C4.99592865 16.90526413 5.0152948 17.69724701 5.0352478 18.51322937 C5.09477232 21.02954519 5.14131958 23.54590744 5.1875 26.0625 C5.22570481 27.7741079 5.26475799 29.48569709 5.3046875 31.19726562 C5.4004513 35.38135749 5.4845818 39.56553931 5.5625 43.75 C14.17065249 42.33218665 18.1222291 36.04252334 23.21875 29.46875 C24.83962031 26.87901356 24.83962031 26.87901356 24.09765625 24.3359375 C21.73610517 20.35795578 18.95804951 16.7359047 16.10742188 13.09765625 C13.07273965 9.04250085 11.77819576 5.96591566 11.5625 0.75 C12.5625 -0.25 12.5625 -0.25 14.93041992 -0.54492188 C17.5625 -0.25 17.5625 -0.25 19.23168945 1.31054688 C19.70823975 2.02275391 20.18479004 2.73496094 20.67578125 3.46875 C21.20107422 4.23574219 21.72636719 5.00273437 22.26757812 5.79296875 C23.06325195 7.00919922 23.06325195 7.00919922 23.875 8.25 C24.42478516 9.06082031 24.97457031 9.87164062 25.54101562 10.70703125 C26.89706593 12.71162735 28.23639176 14.72552332 29.5625 16.75 C30.69002649 14.52208002 31.81458139 12.29274113 32.9375 10.0625 C33.41316406 9.12374023 33.41316406 9.12374023 33.8984375 8.16601562 C35.61722081 4.74635299 37.20719217 1.32992926 38.5625 -2.25 C40.5425 -2.25 42.5225 -2.25 44.5625 -2.25 C46.09704399 2.09928766 45.0796488 4.59991581 43.25976562 8.58398438 C42.75993164 9.62522461 42.75993164 9.62522461 42.25 10.6875 C38.88147255 17.53563651 38.88147255 17.53563651 36.5625 24.75 C37.46790377 26.87972927 37.46790377 26.87972927 39.3125 28.5625 C39.96605469 29.23539063 40.61960937 29.90828125 41.29296875 30.6015625 C47.20530569 36.19843912 53.25367183 41.60332438 59.5625 46.75 C58.9025 48.4 58.2425 50.05 57.5625 51.75 C54.97781771 52.18403155 53.20234263 52.15169405 50.95019531 50.73779297 C49.13955403 49.27559304 47.40816317 47.75460709 45.6875 46.1875 C44.76203369 45.36910645 44.76203369 45.36910645 43.81787109 44.53417969 C39.57668196 40.7555232 35.48538842 36.85969263 31.5625 32.75 C28.64904927 35.5471711 26.18483934 38.4691482 23.75 41.6875 C19.17291119 47.41308342 15.35646718 51.53717341 7.9375 52.8125 C4.61438908 53.0106412 3.65372892 52.80046706 0.625 51.125 C-1.46635167 48.71677687 -2.51034347 46.78433045 -3.4375 43.75 C-4.076875 44.08 -4.71625 44.41 -5.375 44.75 C-10.0936577 46.29078619 -14.70315136 46.67547185 -19.46875 45.0625 C-23.87288875 42.82310742 -25.92108995 40.38843075 -27.4375 35.75 C-28.14802158 29.45680887 -27.1303528 24.9525096 -23.4375 19.75 C-18.62396203 15.41781583 -10.03543097 11.75 -3.4375 11.75 C-4.52534968 8.50016865 -4.52534968 8.50016865 -6.4375 5.75 C-12.2819124 5.38755455 -12.2819124 5.38755455 -17.4375 7.75 C-19.17175773 9.78317007 -19.17175773 9.78317007 -20.4375 11.75 C-22.0875 11.42 -23.7375 11.09 -25.4375 10.75 C-26.1875 9.125 -26.1875 9.125 -26.4375 6.75 C-23.67229456 1.53865128 -20.75580533 -1.14389822 -15.1875 -3 C-9.69670652 -3.49916304 -4.50223071 -3.50909158 0 0 Z M-18 25.6875 C-19.71087354 28.14223159 -20.28800907 29.76018135 -20.4375 32.75 C-19.62356507 35.33979295 -18.85621836 36.43596123 -16.6875 38.0625 C-13.4490793 39.05201744 -11.67359416 38.78555013 -8.4375 37.75 C-5.6835345 36.16646984 -3.94545646 34.56171049 -2.4375 31.75 C-1.94207424 27.69886231 -2.08283212 23.80897686 -2.4375 19.75 C-8.04424682 19.75 -13.56890621 22.33716079 -18 25.6875 Z " fill="#FFFFFF" transform="translate(303.4375,127.25)"/>
<path d="M0 0 C2.33746522 0.30300475 4.67085177 0.63858045 7 1 C8.34061543 0.69728039 9.67405895 0.36162029 11 0 C16.92099085 -0.38199941 19.67618742 0.27894024 25 3 C27.90931583 2.78180131 30.13814596 1.94894606 32.875 0.9375 C37.90550375 -0.57165112 41.67335698 -0.40473855 46.6875 1.125 C50.60175989 3.3406188 52.02459503 4.97321294 54 9 C55.16401535 15.77595692 55.1833612 22.5128738 55.1875 29.375 C55.19974609 30.46683594 55.21199219 31.55867188 55.22460938 32.68359375 C55.22654297 33.72386719 55.22847656 34.76414063 55.23046875 35.8359375 C55.23457764 36.78001465 55.23868652 37.7240918 55.24291992 38.69677734 C55 41 55 41 53 43 C50.4375 43.1875 50.4375 43.1875 48 43 C46.12856093 41.12856093 46.82466877 37.94395805 46.7890625 35.4453125 C46.76099087 34.09504002 46.73232638 32.74477977 46.703125 31.39453125 C46.66186413 29.2592812 46.62499085 27.12425849 46.59863281 24.98876953 C46.57102696 22.93213365 46.52515471 20.87654523 46.4765625 18.8203125 C46.4468335 16.96817139 46.4468335 16.96817139 46.41650391 15.07861328 C46.23876279 12.05038758 46.23876279 12.05038758 44.71630859 10.10107422 C42.28245816 8.53967088 39.86743322 8.58576397 37.03515625 8.50390625 C34.02887676 9.23672294 32.92078215 10.59717966 31 13 C30.37532276 16.16744066 30.37532276 16.16744066 30.42578125 19.69921875 C30.39806641 20.99021484 30.37035156 22.28121094 30.34179688 23.61132812 C30.33115247 24.97004548 30.32139751 26.32877008 30.3125 27.6875 C30.27432374 30.3582607 30.22526149 33.02862316 30.17578125 35.69921875 C30.16458252 36.88346436 30.15338379 38.06770996 30.1418457 39.2878418 C30 42 30 42 29 43 C26.5 43.125 26.5 43.125 24 43 C22.19125519 41.19125519 22.82675417 38.39098053 22.7890625 35.953125 C22.76070312 34.715625 22.73234375 33.478125 22.703125 32.203125 C22.65135318 29.58347083 22.60699123 26.96365896 22.5703125 24.34375 C22.539375 23.10109375 22.5084375 21.8584375 22.4765625 20.578125 C22.45674316 19.43762695 22.43692383 18.29712891 22.41650391 17.12207031 C21.9530537 13.64809539 21.20726883 11.71654195 19 9 C15.03578321 8.62245554 10.73318927 8.35739672 7 10 C5.75442798 13.73671606 5.91436872 17.17563796 5.97265625 21.0625 C5.98529956 22.67968538 5.99766073 24.296873 6.00976562 25.9140625 C6.034615 28.46198458 6.06262805 31.00979125 6.09594727 33.55761719 C6.1261149 36.01758572 6.143911 38.47740573 6.16015625 40.9375 C6.17361588 41.70006104 6.1870755 42.46262207 6.20094299 43.24829102 C6.21903823 47.05524916 6.16604456 48.75093317 4 52 C-0.875 51.125 -0.875 51.125 -2 50 C-2.10350194 48.50678703 -2.13850739 47.00874343 -2.14526367 45.51196289 C-2.15164352 44.55749771 -2.15802338 43.60303253 -2.16459656 42.61964417 C-2.16570938 41.58113815 -2.1668222 40.54263214 -2.16796875 39.47265625 C-2.17129715 38.41340439 -2.17462555 37.35415253 -2.17805481 36.26280212 C-2.18312869 34.01740962 -2.18546299 31.77200955 -2.18530273 29.52661133 C-2.18748841 26.08076622 -2.20563721 22.63524148 -2.22460938 19.18945312 C-2.22754329 17.01302193 -2.2295281 14.83658921 -2.23046875 12.66015625 C-2.23765427 11.62367447 -2.24483978 10.58719269 -2.25224304 9.51930237 C-2.24916641 8.56168503 -2.24608978 7.60406769 -2.24291992 6.61743164 C-2.24434494 5.77217422 -2.24576996 4.92691681 -2.24723816 4.05604553 C-2 2 -2 2 0 0 Z " fill="#FFFFFF" transform="translate(214,127)"/>
<path d="M0 0 C1.67542976 0.28604898 3.34385343 0.61781233 5 1 C5.33 1.99 5.66 2.98 6 4 C7.0209375 3.505 7.0209375 3.505 8.0625 3 C13.09485495 1.28685789 16.74292423 1.458157 21.625 3.5625 C25.28204923 5.12013208 26.33464796 5.22178401 30 4 C30.886875 3.62875 31.77375 3.2575 32.6875 2.875 C38.00045468 1.47157801 43.21252537 1.47583956 48.12890625 4.1640625 C52.36996521 7.47545301 54.18239176 10.65427182 55 16 C55.28055713 20.77390103 55.27916642 25.5316376 55.25 30.3125 C55.26160156 32.24319336 55.26160156 32.24319336 55.2734375 34.21289062 C55.27085937 35.43814453 55.26828125 36.66339844 55.265625 37.92578125 C55.26336914 39.04380127 55.26111328 40.16182129 55.25878906 41.3137207 C55 44 55 44 53 46 C50.375 45.625 50.375 45.625 48 45 C47.970271 44.07888428 47.970271 44.07888428 47.93994141 43.13916016 C47.84346198 40.30074617 47.73429198 37.46294843 47.625 34.625 C47.5940625 33.65949219 47.563125 32.69398438 47.53125 31.69921875 C47.19993898 22.19539441 47.19993898 22.19539441 45 13 C41.2794164 10.51961093 39.40203429 10.53662797 35 11 C32.24907918 13.0834673 31.12297925 14.2226716 30.57763672 17.66967773 C30.62815186 19.16156616 30.62815186 19.16156616 30.6796875 20.68359375 C30.70160156 21.77607422 30.72351563 22.86855469 30.74609375 23.99414062 C30.78863281 25.13044922 30.83117187 26.26675781 30.875 27.4375 C30.94410383 29.68593379 31.00432839 31.93466205 31.0546875 34.18359375 C31.10858643 35.67717407 31.10858643 35.67717407 31.16357422 37.20092773 C30.98891248 40.189729 30.2587195 42.30155454 29 45 C27.33388095 45.042721 25.66617115 45.04063832 24 45 C22.15940154 43.15940154 22.82568172 40.16832857 22.7890625 37.69921875 C22.76070313 36.41208984 22.73234375 35.12496094 22.703125 33.79882812 C22.66192337 31.74487799 22.62504705 29.69115936 22.59863281 27.63696289 C22.57095789 25.65749008 22.52398971 23.67831682 22.4765625 21.69921875 C22.45674316 20.51158936 22.43692383 19.32395996 22.41650391 18.1003418 C21.96603021 14.74713813 21.45417199 13.30580455 19 11 C13.58301996 10.19977051 13.58301996 10.19977051 8.90869141 12.50512695 C6.2384997 15.99536603 6.4155234 19.22685576 6.42578125 23.44921875 C6.41161667 24.26244095 6.39745209 25.07566315 6.38285828 25.91352844 C6.34099053 28.50498772 6.32571953 31.09575018 6.3125 33.6875 C6.28347809 36.28963846 6.24899812 38.89159902 6.21000671 41.49360657 C6.18745459 43.11167864 6.17167472 44.7298614 6.16316223 46.34806824 C6.10959212 51.89040788 6.10959212 51.89040788 5 53 C2.5 53.125 2.5 53.125 0 53 C-1.64087745 51.35912255 -1.12739755 49.48168938 -1.12939453 47.22070312 C-1.13254669 46.202948 -1.13569885 45.18519287 -1.13894653 44.13659668 C-1.1369223 43.02933228 -1.13489807 41.92206787 -1.1328125 40.78125 C-1.13376923 39.65303833 -1.13472595 38.52482666 -1.13571167 37.36242676 C-1.13639368 34.97159774 -1.13453797 32.58076689 -1.13037109 30.18994141 C-1.12502316 26.51590849 -1.13031543 22.84199783 -1.13671875 19.16796875 C-1.13605797 16.85156223 -1.13477682 14.53515578 -1.1328125 12.21875 C-1.13584885 10.55785339 -1.13584885 10.55785339 -1.13894653 8.86340332 C-1.13579437 7.84564819 -1.13264221 6.82789307 -1.12939453 5.77929688 C-1.12859894 4.87852417 -1.12780334 3.97775146 -1.12698364 3.04968262 C-1 1 -1 1 0 0 Z " fill="#FFFFFF" transform="translate(388,125)"/>
<path d="M0 0 C4.16767804 3.95368969 5.90779687 7.54554882 6.43359375 13.34765625 C6.61772645 21.7034364 6.61525385 28.72964109 0.70703125 35.15234375 C-4.56312455 39.99256579 -9.79286236 40.86976476 -16.65625 40.80859375 C-18.90234375 40.640625 -18.90234375 40.640625 -23.90234375 39.640625 C-23.90234375 47.560625 -23.90234375 55.480625 -23.90234375 63.640625 C-28.90234375 64.640625 -28.90234375 64.640625 -30.90234375 63.640625 C-30.90234375 54.400625 -30.90234375 45.160625 -30.90234375 35.640625 C-32.22234375 34.980625 -33.54234375 34.320625 -34.90234375 33.640625 C-40.18107497 29.25325848 -45.44522897 23.84608102 -46.21484375 16.765625 C-45.90234375 14.640625 -45.90234375 14.640625 -44.90234375 13.640625 C-42.57421875 13.26953125 -42.57421875 13.26953125 -39.90234375 13.640625 C-37.91796875 15.79296875 -37.91796875 15.79296875 -36.15234375 18.578125 C-35.559375 19.49464844 -34.96640625 20.41117188 -34.35546875 21.35546875 C-33.8759375 22.10957031 -33.39640625 22.86367187 -32.90234375 23.640625 C-32.57234375 23.970625 -32.24234375 24.300625 -31.90234375 24.640625 C-31.88252441 23.89377441 -31.86270508 23.14692383 -31.84228516 22.37744141 C-31.74726164 19.00646895 -31.63749116 15.63613571 -31.52734375 12.265625 C-31.49640625 11.09 -31.46546875 9.914375 -31.43359375 8.703125 C-31.39492187 7.58164062 -31.35625 6.46015625 -31.31640625 5.3046875 C-31.28498535 4.26779785 -31.25356445 3.2309082 -31.22119141 2.16259766 C-30.90234375 -0.359375 -30.90234375 -0.359375 -28.90234375 -2.359375 C-19.47047264 -5.15272622 -8.40261092 -6.00432977 0 0 Z M-23.90234375 4.640625 C-23.90234375 13.220625 -23.90234375 21.800625 -23.90234375 30.640625 C-18.75584115 33.2138763 -14.57234039 33.44476345 -8.90234375 32.640625 C-5.47632969 31.00532835 -3.50678432 28.62970956 -1.52734375 25.390625 C-0.31389009 20.05142891 -0.21817209 15.39992356 -2.21484375 10.265625 C-4.54017277 6.64844652 -5.79127852 5.01098008 -9.90234375 3.640625 C-11.92141183 3.54645722 -13.94358688 3.51071308 -15.96484375 3.515625 C-17.02832031 3.51304688 -18.09179688 3.51046875 -19.1875 3.5078125 C-21.86938759 3.45624045 -21.86938759 3.45624045 -23.90234375 4.640625 Z " fill="#FFFFFF" transform="translate(242.90234375,53.359375)"/>
<path d="M0 0 C2.5625 0.1875 2.5625 0.1875 4.5625 2.1875 C7.49008929 2.31644497 7.49008929 2.31644497 10.8125 2.125 C16.08142633 2.00894435 18.89081588 2.73486584 23.5625 5.1875 C24.3153125 4.72730469 25.068125 4.26710937 25.84375 3.79296875 C29.02099137 1.91675294 30.90394424 1.78450085 34.5625 1.8125 C35.573125 1.80476562 36.58375 1.79703125 37.625 1.7890625 C41.82473721 2.35870771 44.49205614 4.00236572 47.3125 7.125 C50.05736046 11.65401976 49.70859052 16.48389074 49.6953125 21.63671875 C49.69626923 22.44994095 49.69722595 23.26316315 49.69821167 24.10102844 C49.69889076 25.8148303 49.6970554 27.52863476 49.69287109 29.24243164 C49.68749822 31.87587184 49.69283586 34.50914308 49.69921875 37.14257812 C49.69855833 38.80729204 49.69727791 40.47200586 49.6953125 42.13671875 C49.69733673 42.92833908 49.69936096 43.71995941 49.70144653 44.53556824 C49.67746487 50.07253513 49.67746487 50.07253513 48.5625 51.1875 C46.0625 51.3125 46.0625 51.3125 43.5625 51.1875 C41.6410232 49.2660232 42.35564475 45.70529429 42.31640625 43.08203125 C42.28344334 41.60871856 42.25023214 40.13541142 42.21679688 38.66210938 C42.16954965 36.33622391 42.1251758 34.01035683 42.08569336 31.68432617 C42.04572665 29.44164342 41.99421693 27.19944333 41.94140625 24.95703125 C41.9329921 24.2693013 41.92457794 23.58157135 41.91590881 22.8730011 C41.80851375 18.63318698 41.09636149 15.13779745 39.5625 11.1875 C35.9057582 10.39879098 33.41400925 9.86364098 29.8684082 11.2121582 C27.23906815 13.05394457 27.23906815 13.05394457 26.90307617 16.46557617 C26.86204516 17.80333869 26.84777918 19.14209923 26.85546875 20.48046875 C26.84034744 21.18649734 26.82522614 21.89252594 26.80964661 22.61994934 C26.76670511 24.87195609 26.75792667 27.12262434 26.75 29.375 C26.72686028 30.90303054 26.70149602 32.43102912 26.67382812 33.95898438 C26.61091366 37.70194153 26.5786287 41.44406064 26.5625 45.1875 C24.1875 45.8125 24.1875 45.8125 21.5625 46.1875 C18.7870304 43.4120304 19.28031712 41.67256807 19.21875 37.7890625 C19.18910156 36.50515625 19.15945313 35.22125 19.12890625 33.8984375 C19.10567241 32.53647663 19.08354845 31.1744964 19.0625 29.8125 C19.02126638 27.15832365 18.96741222 24.50547089 18.90625 21.8515625 C18.87821289 20.07966553 18.87821289 20.07966553 18.84960938 18.27197266 C18.57526064 15.32459006 18.19681555 13.6252335 16.5625 11.1875 C12.69495863 9.25372932 8.5943796 10.08789647 4.5625 11.1875 C4.52491577 12.72458618 4.52491577 12.72458618 4.48657227 14.29272461 C4.39265516 18.08159676 4.29239683 21.87027881 4.19018555 25.65893555 C4.14677703 27.30114303 4.10510642 28.94339739 4.06518555 30.58569336 C4.0076256 32.94138745 3.94389108 35.29684428 3.87890625 37.65234375 C3.86219376 38.39089096 3.84548126 39.12943817 3.82826233 39.8903656 C3.67637171 45.07362829 3.67637171 45.07362829 2.5625 46.1875 C0.0625 46.3125 0.0625 46.3125 -2.4375 46.1875 C-3.98251451 44.64248549 -3.56469131 43.2008978 -3.56689453 41.05078125 C-3.57004669 40.17317139 -3.57319885 39.29556152 -3.57644653 38.39135742 C-3.5744223 37.43720947 -3.57239807 36.48306152 -3.5703125 35.5 C-3.57126923 34.52716064 -3.57222595 33.55432129 -3.57321167 32.55200195 C-3.57389358 30.490722 -3.57203853 28.42943992 -3.56787109 26.36816406 C-3.562523 23.20112312 -3.56781572 20.034224 -3.57421875 16.8671875 C-3.57355797 14.86979135 -3.57227681 12.87239529 -3.5703125 10.875 C-3.57233673 9.92085205 -3.57436096 8.9667041 -3.57644653 7.98364258 C-3.57329437 7.10603271 -3.57014221 6.22842285 -3.56689453 5.32421875 C-3.56609894 4.54780029 -3.56530334 3.77138184 -3.56448364 2.97143555 C-3.36378898 0.1519673 -2.8208869 0.2169913 0 0 Z " fill="#FFFFFF" transform="translate(432.4375,189.8125)"/>
<path d="M0 0 C3.1271359 2.65332743 4.7634353 4.85280591 6.0625 8.75 C6.20456857 11.51667564 6.29583969 14.26283025 6.34375 17.03125 C6.37136414 18.2460907 6.37136414 18.2460907 6.39953613 19.48547363 C6.47814956 22.95030625 6.54592131 26.41533247 6.61474609 29.88037109 C6.66652479 32.40992669 6.72375435 34.93931895 6.78125 37.46875 C6.79482544 38.25318481 6.80840088 39.03761963 6.8223877 39.8458252 C6.89579245 43.05493973 7.04082765 45.68498294 8.0625 48.75 C11.57440809 49.97969878 11.57440809 49.97969878 15.0625 50.75 C15.105221 52.41611905 15.10313832 54.08382885 15.0625 55.75 C13.50299449 57.30950551 11.97372869 57.03196698 9.8125 57.125 C6.07921203 57.08338692 5.22388512 56.86767665 2.0625 54.5625 C0.09063585 51.78956604 -0.65010919 50.10289282 -0.9375 46.75 C-1.576875 47.08 -2.21625 47.41 -2.875 47.75 C-8.18895712 49.48516967 -12.98736182 49.44910614 -18.25 47.5625 C-21.89462057 45.10450008 -24.31132574 43.03167606 -25.5078125 38.671875 C-26.37291491 33.26038333 -25.80458308 29.55930065 -22.9375 24.75 C-17.7559847 18.72823897 -10.4647631 17.47741038 -2.9375 15.75 C-2.2775 15.75 -1.6175 15.75 -0.9375 15.75 C-1.71959906 12.95860579 -2.58473334 10.32025666 -3.9375 7.75 C-7.03829154 6.24150682 -8.69959781 6.70241956 -12.0625 7.375 C-15.12513866 8.51325948 -15.12513866 8.51325948 -16.5 11.375 C-16.974375 12.15875 -17.44875 12.9425 -17.9375 13.75 C-20.5625 14.125 -20.5625 14.125 -22.9375 13.75 C-23.9375 12.75 -23.9375 12.75 -24.25 10 C-23.85650029 5.90760307 -22.9055717 4.5658629 -19.9375 1.75 C-13.7207694 -1.85570375 -6.7450876 -2.87025004 0 0 Z M-16.5625 28.5 C-18.5405305 31.73677719 -18.41024454 34.03557858 -17.9375 37.75 C-16.43941559 40.11539644 -15.28160555 40.61618118 -12.6875 41.625 C-8.84510044 41.79965453 -6.32692743 40.47668945 -2.9375 38.75 C-0.60883771 36.86153817 -0.60883771 36.86153817 -0.7421875 33.7109375 C-0.76539063 32.52757812 -0.78859375 31.34421875 -0.8125 30.125 C-0.83054687 28.93648437 -0.84859375 27.74796875 -0.8671875 26.5234375 C-0.89039063 25.60820312 -0.91359375 24.69296875 -0.9375 23.75 C-6.4690247 23.75 -11.96428845 25.43452564 -16.5625 28.5 Z " fill="#FFFFFF" transform="translate(475.9375,124.25)"/>
<path d="M0 0 C4.31719841 4.01599852 6.2930652 8.39327201 7.03515625 14.23828125 C7.19617298 19.07578375 7.19617298 19.07578375 6.6875 21.5 C3.24116118 23.79755922 1.97681609 23.73643976 -2.07421875 23.6953125 C-3.19248047 23.68886719 -4.31074219 23.68242187 -5.46289062 23.67578125 C-7.21375977 23.65064453 -7.21375977 23.65064453 -9 23.625 C-10.17884766 23.61597656 -11.35769531 23.60695312 -12.57226562 23.59765625 C-15.48588026 23.57406423 -18.39908892 23.5411454 -21.3125 23.5 C-20.85116488 24.79339268 -20.38387609 26.08466287 -19.9140625 27.375 C-19.65447754 28.09429687 -19.39489258 28.81359375 -19.12744141 29.5546875 C-17.96462703 32.33039299 -17.10852257 33.32272734 -14.3125 34.5 C-8.64314515 35.24456818 -5.11068753 34.69879169 -0.3125 31.5 C2.4375 31.25 2.4375 31.25 4.6875 31.5 C5.6875 32.5 5.6875 32.5 6.25 34.75 C5.6875 37.5 5.6875 37.5 4.04296875 38.90625 C-1.86364837 42.67596482 -7.20284286 44.42734658 -14.3125 43.5 C-19.5716094 41.74696353 -23.37301357 39.29027418 -26.3125 34.5 C-29.93332741 27.12902991 -30.58968956 19.70256312 -28.62109375 11.68359375 C-26.60588522 6.02583256 -24.41096592 2.69903744 -19.3125 -0.5 C-12.58654301 -3.29190667 -6.55389034 -2.9677994 0 0 Z M-19.3125 9.5 C-19.9725 11.48 -20.6325 13.46 -21.3125 15.5 C-14.7125 15.5 -8.1125 15.5 -1.3125 15.5 C-1.83319697 9.87957216 -1.83319697 9.87957216 -3.875 7.125 C-9.44958238 3.40861175 -15.03779109 4.72238415 -19.3125 9.5 Z " fill="#FFFFFF" transform="translate(276.3125,193.5)"/>
<path d="M0 0 C4.71110141 4.39702798 6.39400913 8.59707758 7 15 C6.50980392 20.49019608 6.50980392 20.49019608 5 22 C3.00035018 22.08758003 0.9976389 22.10696576 -1.00390625 22.09765625 C-2.21884766 22.09443359 -3.43378906 22.09121094 -4.68554688 22.08789062 C-5.96494141 22.07951172 -7.24433594 22.07113281 -8.5625 22.0625 C-9.84576172 22.05798828 -11.12902344 22.05347656 -12.45117188 22.04882812 C-15.63416022 22.03699545 -18.81705762 22.02051068 -22 22 C-21.55255154 23.28370379 -21.09643561 24.56438846 -20.63671875 25.84375 C-20.38365967 26.55724609 -20.13060059 27.27074219 -19.86987305 28.00585938 C-18.50879785 31.12605646 -16.98391336 32.40857954 -14 34 C-8.66740101 34.94104688 -5.51640745 33.92956159 -1 31 C1.75 30.75 1.75 30.75 4 31 C5 32 5 32 5.375 34.3125 C5 37 5 37 3.25 39.1875 C-2.88218535 42.6073726 -10.01807752 43.94524821 -16.875 42.0625 C-22.30836074 39.80844274 -25.44332987 36.12513322 -28.03125 30.9296875 C-31.04001376 23.15704778 -31.36740497 14.40902097 -27.96875 6.71484375 C-25.13240109 1.69404871 -21.36626763 -0.74829393 -16.04296875 -2.49609375 C-9.98218779 -3.99100913 -5.39794585 -2.9988588 0 0 Z M-21 10 C-21.33 11.65 -21.66 13.3 -22 15 C-15.07 15 -8.14 15 -1 15 C-1.55112103 9.41090372 -1.55112103 9.41090372 -3.4375 6.625 C-9.73850345 2.62924172 -16.77541099 3.86753208 -21 10 Z " fill="#FFFFFF" transform="translate(424,59)"/>
<path d="M0 0 C3.5 1.8125 3.5 1.8125 6 4 C6.639375 4.495 7.27875 4.99 7.9375 5.5 C9 7 9 7 8.75 9.125 C8 11 8 11 7 12 C4.75 12.3125 4.75 12.3125 2 12 C1.21625 11.319375 0.4325 10.63875 -0.375 9.9375 C-2.9697371 7.58626558 -2.9697371 7.58626558 -6.8125 8.25 C-7.864375 8.4975 -8.91625 8.745 -10 9 C-11.66670026 12.52948291 -12.13583456 14.28272326 -11 18 C-10.2265625 18.17015625 -9.453125 18.3403125 -8.65625 18.515625 C6.00093721 21.92596064 6.00093721 21.92596064 11.5 27.5625 C13.63274816 32.45004787 13.75919078 36.74827818 13 42 C11.07110323 46.24357289 8.52360217 49.14202524 4.31640625 51.3046875 C-2.27706062 53.28383944 -10.27177899 53.19095976 -16.625 50.4375 C-20.62614189 47.99903584 -22.24329701 45.31856153 -24 41 C-24.3125 37.125 -24.3125 37.125 -24 34 C-23 33 -23 33 -20.4375 32.9375 C-19.633125 32.958125 -18.82875 32.97875 -18 33 C-17.76925781 33.54269531 -17.53851563 34.08539063 -17.30078125 34.64453125 C-15.75655062 38.03207274 -14.53209813 40.53980702 -11.6875 43 C-6.99030951 44.74779181 -3.35958986 44.42801903 1.375 42.9375 C4.31587943 41.15880865 4.31587943 41.15880865 5.125 37.5625 C5.34609554 34.03199735 5.34609554 34.03199735 3.39453125 31.90625 C0.52290952 29.6201955 -1.90074056 28.88199876 -5.4375 27.9375 C-10.97077139 26.44358084 -15.50469313 25.21717915 -18.8125 20.3125 C-20.23547425 16.34315078 -20.74795061 13.16359171 -20 9 C-15.52198296 0.2098184 -9.32108913 -1.25923671 0 0 Z " fill="#FFFFFF" transform="translate(377,54)"/>
<path d="M0 0 C3.23846028 1.12767813 5.72489821 2.40275991 8 5 C8.5 8.3125 8.5 8.3125 8 11 C5.875 11.75 5.875 11.75 3 12 C2.05125 11.360625 1.1025 10.72125 0.125 10.0625 C-3.62622844 7.58668923 -5.58819172 7.33406667 -10 8 C-12.23608998 9.48130668 -12.23608998 9.48130668 -13 12 C-12.64753778 15.09154582 -12.64753778 15.09154582 -11 18 C-8.46358789 19.16808453 -6.41401249 19.9054451 -3.75 20.5625 C2.69446907 22.22742668 7.46578096 24.2461424 11.35546875 30.0078125 C13.00009513 35.09120313 12.56148432 40.40420246 10.8125 45.375 C7.46112483 50.22871576 4.01539503 52.54246612 -1.83203125 53.73828125 C-9.1759055 54.62483904 -14.06175365 52.84750196 -20.15234375 48.765625 C-22.36300221 46.65311417 -23.14673869 44.91953736 -24 42 C-23.625 39.1875 -23.625 39.1875 -23 37 C-20.525 36.505 -20.525 36.505 -18 36 C-17.4225 37.11375 -16.845 38.2275 -16.25 39.375 C-15.02134625 41.48674863 -14.14713693 42.87913752 -12.25 44.4375 C-7.53060992 45.61734752 -3.55081241 45.59392816 0.9375 43.875 C3.2227709 42.09751622 3.2227709 42.09751622 4 39.125 C4 35.29426367 3.37743887 33.98837436 1 31 C-1.5212371 29.93064771 -3.75865437 29.13704415 -6.375 28.4375 C-12.15990657 26.83874164 -17.13909922 25.19011563 -20.3125 19.75 C-21.59150487 14.63398053 -21.5699496 10.58985942 -19.8125 5.6875 C-15.04733837 -1.37808449 -7.76391775 -0.98915298 0 0 Z " fill="#FFFFFF" transform="translate(459,54)"/>
<path d="M0 0 C3.74581073 3.0847853 6.20585556 5.95613235 7.125 10.75 C7.22032463 13.57502638 7.26509138 16.37448918 7.2578125 19.19921875 C7.25876923 20.01244095 7.25972595 20.82566315 7.26071167 21.66352844 C7.26139076 23.3773303 7.2595554 25.09113476 7.25537109 26.80493164 C7.24999822 29.43837184 7.25533586 32.07164308 7.26171875 34.70507812 C7.26105833 36.36979204 7.25977791 38.03450586 7.2578125 39.69921875 C7.25983673 40.49083908 7.26186096 41.28245941 7.26394653 42.09806824 C7.23996487 47.63503513 7.23996487 47.63503513 6.125 48.75 C3.625 48.875 3.625 48.875 1.125 48.75 C-0.6321873 46.9928127 -0.08814074 44.4860089 -0.15625 42.09765625 C-0.21232422 40.34291992 -0.21232422 40.34291992 -0.26953125 38.55273438 C-0.30433594 37.31845703 -0.33914063 36.08417969 -0.375 34.8125 C0.15196526 20.96886077 0.15196526 20.96886077 -3.5 8.125 C-6.80481156 6.21168804 -9.11579938 6.3472285 -12.875 6.75 C-15.63642665 7.76736771 -16.55585371 8.11170741 -17.875 10.75 C-18.00560439 12.83085305 -18.07771543 14.9155036 -18.12109375 17 C-18.15396484 18.2478125 -18.18683594 19.495625 -18.22070312 20.78125 C-18.28189902 23.42699591 -18.33919106 26.072835 -18.39257812 28.71875 C-18.42673828 29.9665625 -18.46089844 31.214375 -18.49609375 32.5 C-18.5211499 33.64984375 -18.54620605 34.7996875 -18.57202148 35.984375 C-18.875 38.75 -18.875 38.75 -20.875 40.75 C-22.525 40.42 -24.175 40.09 -25.875 39.75 C-26.205 28.86 -26.535 17.97 -26.875 6.75 C-29.515 7.08 -32.155 7.41 -34.875 7.75 C-35.875 6.75 -35.875 6.75 -36.1875 4.375 C-35.875 1.75 -35.875 1.75 -34.4375 -0.0625 C-30.67660849 -1.80535216 -26.95831147 -1.82903312 -22.875 -1.25 C-21.885 -0.59 -20.895 0.07 -19.875 0.75 C-18.23891762 -0.01795704 -16.60348233 -0.78734921 -14.97265625 -1.56640625 C-10.01772446 -3.18114193 -4.66771826 -2.02944272 0 0 Z " fill="#FFFFFF" transform="translate(340.875,58.25)"/>
<path d="M0 0 C4.70588235 0.70588235 4.70588235 0.70588235 6 2 C6.09758649 4.15976301 6.13205717 6.32242542 6.140625 8.484375 C6.15896194 9.82553769 6.17853307 11.16668398 6.19921875 12.5078125 C6.22812892 14.62560473 6.24999823 16.74234956 6.25048828 18.86035156 C6.2538363 20.90264128 6.28846676 22.94250808 6.328125 24.984375 C6.3374707 26.20866211 6.34681641 27.43294922 6.35644531 28.69433594 C7.16438885 32.84439493 8.94002359 34.20143475 12 37 C11.8125 39.8125 11.8125 39.8125 11 42 C8.04770489 43.13549812 7.05123484 43.01921307 4 41.875 C3.01 41.58625 2.02 41.2975 1 41 C-0.36538653 41.95577057 -1.69481525 42.96352976 -3 44 C-8.61234229 45.19607295 -12.59746736 45.30107872 -18 43 C-21.35455121 40.35564657 -23.63799484 38.08601547 -25 34 C-25.09590036 31.58222532 -25.13074263 29.16186248 -25.1328125 26.7421875 C-25.13376923 26.03853058 -25.13472595 25.33487366 -25.13571167 24.6098938 C-25.13639125 23.12550771 -25.13455245 21.64111863 -25.13037109 20.15673828 C-25.12500367 17.87656042 -25.13033171 15.59657811 -25.13671875 13.31640625 C-25.13605824 11.87499956 -25.13477765 10.433593 -25.1328125 8.9921875 C-25.13168457 7.67589355 -25.13055664 6.35959961 -25.12939453 5.00341797 C-25 2 -25 2 -24 1 C-21.5 0.875 -21.5 0.875 -19 1 C-17.16456775 2.83543225 -17.86947317 5.80503814 -17.859375 8.265625 C-17.84003906 9.54824219 -17.82070313 10.83085937 -17.80078125 12.15234375 C-17.77187657 14.19771721 -17.75000192 16.24200711 -17.74951172 18.28759766 C-17.74616366 20.25960708 -17.70937396 22.2314693 -17.671875 24.203125 C-17.65785645 25.97671387 -17.65785645 25.97671387 -17.64355469 27.78613281 C-16.8172088 31.9128465 -15.25378519 33.41206117 -12 36 C-8.91382729 36.75060849 -8.91382729 36.75060849 -6 36 C-1.84838938 31.99154837 -1.86965387 27.23704155 -1.71875 21.73828125 C-1.68136719 20.53751953 -1.64398438 19.33675781 -1.60546875 18.09960938 C-1.53483014 15.5631601 -1.46452064 13.02670164 -1.39453125 10.49023438 C-1.35714844 9.29333984 -1.31976563 8.09644531 -1.28125 6.86328125 C-1.23581055 5.21259644 -1.23581055 5.21259644 -1.18945312 3.52856445 C-1 1 -1 1 0 0 Z " fill="#FFFFFF" transform="translate(412,191)"/>
<path d="M0 0 C2.625 0.375 2.625 0.375 5 1 C5 1.66 5 2.32 5 3 C5.68964844 2.82082031 6.37929688 2.64164063 7.08984375 2.45703125 C12.9613327 1.12809342 17.29229403 0.80082944 23.02734375 2.6875 C26.01094998 4.67263207 27.27109858 6.8654642 29 10 C29.51445197 12.83616135 29.46907867 15.5862038 29.390625 18.4609375 C29.38496521 19.25150543 29.37930542 20.04207336 29.37347412 20.8565979 C29.35121487 23.36336727 29.30104153 25.86866813 29.25 28.375 C29.22992133 30.0820105 29.21167296 31.78904357 29.1953125 33.49609375 C29.15138484 37.66462196 29.08243296 41.83206264 29 46 C26.625 46.625 26.625 46.625 24 47 C21.10666473 44.10666473 21.72943113 41.95446219 21.69140625 37.91015625 C21.66624802 36.47200112 21.64084997 35.03385018 21.61523438 33.59570312 C21.58647408 31.32658959 21.56245907 29.05754858 21.54370117 26.78833008 C21.52206146 24.59939015 21.48262673 22.4113021 21.44140625 20.22265625 C21.42795166 18.91047119 21.41449707 17.59828613 21.40063477 16.24633789 C21.25978789 13.064015 21.25978789 13.064015 19.68334961 11.07202148 C16.80312843 9.23778636 14.3099028 9.65759626 11 10 C8.23308573 11.01297593 8.23308573 11.01297593 6 13 C5.25045683 15.95284204 5.25045683 15.95284204 5.36328125 19.34765625 C5.34330078 20.59224609 5.32332031 21.83683594 5.30273438 23.11914062 C5.30595703 24.42044922 5.30917969 25.72175781 5.3125 27.0625 C5.29597373 29.63678458 5.27164208 32.21103479 5.23828125 34.78515625 C5.23868408 35.92863525 5.23908691 37.07211426 5.23950195 38.25024414 C5 41 5 41 3 43 C-0.53571429 42.46428571 -0.53571429 42.46428571 -2 41 C-2.11349161 38.13905783 -2.16418492 35.30316544 -2.16796875 32.44140625 C-2.17129715 31.58191879 -2.17462555 30.72243134 -2.17805481 29.8368988 C-2.1831277 28.01521339 -2.18546302 26.19351864 -2.18530273 24.37182617 C-2.18748803 21.5778071 -2.20563644 18.78418343 -2.22460938 15.99023438 C-2.2275434 14.22395969 -2.22952814 12.45768312 -2.23046875 10.69140625 C-2.23765427 9.85178848 -2.24483978 9.01217072 -2.25224304 8.14710999 C-2.22882181 2.22882181 -2.22882181 2.22882181 0 0 Z " fill="#FFFFFF" transform="translate(291,190)"/>
<path d="M0 0 C1 1 1 1 1.0625 4.0625 C1.041875 5.031875 1.02125 6.00125 1 7 C-3.51084337 8.25301205 -3.51084337 8.25301205 -5.8125 7.0625 C-9.13874719 5.44689422 -12.40801743 5.55636869 -16 6 C-19.72695073 7.40795916 -20.77554261 8.62074442 -22.8125 12.0625 C-24.71252801 17.22751868 -25.10981108 22.90391165 -23.23828125 28.125 C-21.91741963 30.63098253 -20.44281476 32.6362593 -18.25 34.4375 C-13.49610288 35.62597428 -9.53561125 35.89279724 -5.3125 33.4375 C-4.549375 32.963125 -3.78625 32.48875 -3 32 C-0.1875 32.3125 -0.1875 32.3125 2 33 C2.8125 34.6875 2.8125 34.6875 3 37 C-0.4168498 41.10021977 -3.44762971 43.72627784 -8.8046875 44.30078125 C-15.76569724 44.32734999 -20.56386946 44.2391549 -25.83984375 39.265625 C-32.02979473 32.73389759 -33.44495845 26.6518596 -33.25 17.78125 C-32.74114535 12.12024204 -31.30975159 7.68396634 -27.8125 3.1875 C-18.54208273 -4.02282454 -10.7026952 -4.77798893 0 0 Z " fill="#FFFFFF" transform="translate(242,193)"/>
<path d="M0 0 C2.5 0.125 2.5 0.125 3.5 1.125 C3.57244053 3.14464199 3.58377188 5.16667124 3.5625 7.1875 C3.55347656 8.29222656 3.54445313 9.39695313 3.53515625 10.53515625 C3.52355469 11.38980469 3.51195312 12.24445313 3.5 13.125 C4.21027344 13.11339844 4.92054688 13.10179687 5.65234375 13.08984375 C6.57144531 13.08082031 7.49054688 13.07179687 8.4375 13.0625 C9.35402344 13.05089844 10.27054687 13.03929687 11.21484375 13.02734375 C13.5 13.125 13.5 13.125 14.5 14.125 C14.625 16.625 14.625 16.625 14.5 19.125 C13.5 20.125 13.5 20.125 11.21484375 20.22265625 C9.84005859 20.20525391 9.84005859 20.20525391 8.4375 20.1875 C7.51839844 20.17847656 6.59929687 20.16945312 5.65234375 20.16015625 C4.94207031 20.14855469 4.23179687 20.13695312 3.5 20.125 C3.61817917 24.07621228 3.74242233 28.02718229 3.87231445 31.97802734 C3.93698251 33.98394807 3.99683106 35.99002228 4.05664062 37.99609375 C4.11948242 39.88134766 4.11948242 39.88134766 4.18359375 41.8046875 C4.22025146 42.96726074 4.25690918 44.12983398 4.29467773 45.32763672 C4.31821659 48.0785501 4.31821659 48.0785501 5.5 50.125 C6.13808594 50.11339844 6.77617187 50.10179687 7.43359375 50.08984375 C8.25988281 50.08082031 9.08617187 50.07179687 9.9375 50.0625 C10.76121094 50.05089844 11.58492188 50.03929687 12.43359375 50.02734375 C14.5 50.125 14.5 50.125 15.5 51.125 C15.54063832 52.79117115 15.542721 54.45888095 15.5 56.125 C10.642719 58.75602721 7.78057069 59.47152413 2.39453125 58.25390625 C-0.60819823 56.46465095 -1.80103441 54.14666482 -3.5 51.125 C-3.95410156 47.59814453 -3.95410156 47.59814453 -3.890625 43.7578125 C-3.88496521 43.07822479 -3.87930542 42.39863708 -3.87347412 41.69845581 C-3.85125351 39.54822451 -3.80109198 37.39971926 -3.75 35.25 C-3.72991614 33.7838784 -3.71166868 32.31773042 -3.6953125 30.8515625 C-3.65143811 27.27548992 -3.58251443 23.70041369 -3.5 20.125 C-5.2015625 20.1559375 -5.2015625 20.1559375 -6.9375 20.1875 C-10.5 20.125 -10.5 20.125 -11.5 19.125 C-11.625 16.625 -11.625 16.625 -11.5 14.125 C-10.5 13.125 -10.5 13.125 -6.9375 13.0625 C-5.803125 13.083125 -4.66875 13.10375 -3.5 13.125 C-3.51160156 12.27035156 -3.52320313 11.41570312 -3.53515625 10.53515625 C-3.54417969 9.43042969 -3.55320312 8.32570312 -3.5625 7.1875 C-3.57410156 6.08535156 -3.58570313 4.98320312 -3.59765625 3.84765625 C-3.46586418 0.17329321 -3.46586418 0.17329321 0 0 Z " fill="#FFFFFF" transform="translate(337.5,182.875)"/>
<path d="M0 0 C2.79297711 0.44099639 5.31340243 1.10446748 8 2 C9.60875 1.690625 9.60875 1.690625 11.25 1.375 C15.98736285 0.90126371 17.84343548 1.79946584 22 4 C24 6 24 6 24.1875 8.5625 C24 11 24 11 23 12 C20.5625 12.1875 20.5625 12.1875 18 12 C17.34 11.34 16.68 10.68 16 10 C13.58517587 9.49940084 13.58517587 9.49940084 11 10 C8.05821918 12.21897793 7.09853635 13.40887548 6.48583984 17.08447266 C6.47762207 18.2657373 6.4694043 19.44700195 6.4609375 20.6640625 C6.43773437 21.95054688 6.41453125 23.23703125 6.390625 24.5625 C6.38407683 25.91666085 6.37888386 27.27082889 6.375 28.625 C6.35350292 31.28431533 6.316155 33.94239796 6.2734375 36.6015625 C6.26747559 37.78057129 6.26151367 38.95958008 6.25537109 40.17431641 C6 43 6 43 4 45 C1.375 44.625 1.375 44.625 -1 44 C-1.02464513 37.8944529 -1.04283371 31.78893449 -1.05493164 25.68334961 C-1.05997288 23.60456844 -1.06680574 21.52579084 -1.07543945 19.44702148 C-1.08751422 16.46597414 -1.09323024 13.48497351 -1.09765625 10.50390625 C-1.10539818 9.10078941 -1.10539818 9.10078941 -1.11329651 7.66932678 C-1.11337204 6.80850998 -1.11344757 5.94769318 -1.11352539 5.06079102 C-1.115746 4.29912125 -1.11796661 3.53745148 -1.12025452 2.75270081 C-1 1 -1 1 0 0 Z " fill="#FFFFFF" transform="translate(258,55)"/>
<path d="M0 0 C2.625 0.125 2.625 0.125 5.625 1.125 C7.88129652 1.1540867 10.11690079 1.06019878 12.37109375 0.96484375 C14.9353316 1.14705129 16.4633568 1.75245222 18.625 3.125 C19.4375 5.125 19.4375 5.125 19.625 7.125 C19.295 7.785 18.965 8.445 18.625 9.125 C17.61179687 9.05539063 17.61179687 9.05539063 16.578125 8.984375 C15.68609375 8.94828125 14.7940625 8.9121875 13.875 8.875 C12.99328125 8.82859375 12.1115625 8.7821875 11.203125 8.734375 C7.72739026 9.26100148 6.77796805 10.3754027 4.625 13.125 C4.00032276 16.29244066 4.00032276 16.29244066 4.05078125 19.82421875 C4.02306641 21.11521484 3.99535156 22.40621094 3.96679688 23.73632812 C3.95615247 25.09504548 3.94639751 26.45377008 3.9375 27.8125 C3.89932374 30.4832607 3.85026149 33.15362316 3.80078125 35.82421875 C3.78958252 37.00846436 3.77838379 38.19270996 3.7668457 39.4128418 C3.625 42.125 3.625 42.125 2.625 43.125 C0.125 43.25 0.125 43.25 -2.375 43.125 C-4.29757175 41.20242825 -3.50408424 38.34414892 -3.51394653 35.78625488 C-3.5119223 34.89772827 -3.50989807 34.00920166 -3.5078125 33.09375 C-3.50876923 32.18749878 -3.50972595 31.28124756 -3.51071167 30.34753418 C-3.51139353 28.42748953 -3.50953882 26.50744259 -3.50537109 24.58740234 C-3.50002292 21.63764296 -3.50531588 18.68803586 -3.51171875 15.73828125 C-3.51105797 13.87760383 -3.50977681 12.0169265 -3.5078125 10.15625 C-3.50983673 9.26772339 -3.51186096 8.37919678 -3.51394653 7.46374512 C-3.48587648 0.18346718 -3.48587648 0.18346718 0 0 Z " fill="#FFFFFF" transform="translate(363.375,191.875)"/>
<path d="M0 0 C3.12622271 1.3199607 4.56648858 2.27748097 6.3125 5.1875 C7.90509473 11.70266027 7.44565171 16.37937353 4.203125 22.16796875 C2.40332771 24.90856917 0.58647919 26.98128453 -2 29 C-4.45703125 29.359375 -4.45703125 29.359375 -7 29 C-8.765625 27.390625 -8.765625 27.390625 -10.25 25.25 C-10.75015625 24.55390625 -11.2503125 23.8578125 -11.765625 23.140625 C-14.30906598 18.72984761 -14.54091421 14.01311564 -14 9 C-11.2113103 1.6099723 -7.94943166 -0.83678228 0 0 Z M-5 7 C-7.45811625 10.68717438 -7.31118164 12.64345704 -7 17 C-6.01 18.485 -6.01 18.485 -5 20 C-4.34 20 -3.68 20 -3 20 C-0.16415314 16.29158487 0.41059292 13.61917038 0 9 C-0.33 8.34 -0.66 7.68 -1 7 C-2.32 7 -3.64 7 -5 7 Z " fill="#FFFFFF" transform="translate(112,94)"/>
<path d="M0 0 C2.5 0.125 2.5 0.125 3.5 1.125 C3.65971977 3.49838639 3.7592433 5.84618272 3.81640625 8.22265625 C3.83718735 8.93151474 3.85796844 9.64037323 3.87937927 10.37071228 C3.94494598 12.64287305 4.0037923 14.91515264 4.0625 17.1875 C4.10567849 18.72462183 4.14929255 20.2617315 4.19335938 21.79882812 C4.30063449 25.5740959 4.40188137 29.3494836 4.5 33.125 C6.58871203 34.42118372 6.58871203 34.42118372 9.5 33.5625 C10.49 33.418125 11.48 33.27375 12.5 33.125 C13.16 33.785 13.82 34.445 14.5 35.125 C14.3125 37.625 14.3125 37.625 13.5 40.125 C10.50317868 42.12288088 9.55914854 42.48435228 6.125 42.625 C5.37476563 42.6765625 4.62453125 42.728125 3.8515625 42.78125 C0.23541938 41.77209378 -1.66417763 39.2600731 -3.5 36.125 C-3.94328607 33.17872418 -4.11404034 30.8414701 -4.0234375 27.91796875 C-4.01873444 27.15196854 -4.01403137 26.38596832 -4.00918579 25.59675598 C-3.9879548 23.16772969 -3.93136884 20.74093709 -3.875 18.3125 C-3.85848172 16.66212989 -3.84413653 15.01173651 -3.83203125 13.36132812 C-3.68325096 0.18416255 -3.68325096 0.18416255 0 0 Z " fill="#FFFFFF" transform="translate(366.5,127.875)"/>
<path d="M0 0 C2.5 0.125 2.5 0.125 3.5 1.125 C3.65971977 3.49838639 3.7592433 5.84618272 3.81640625 8.22265625 C3.83718735 8.93151474 3.85796844 9.64037323 3.87937927 10.37071228 C3.94494598 12.64287305 4.0037923 14.91515264 4.0625 17.1875 C4.10567849 18.72462183 4.14929255 20.2617315 4.19335938 21.79882812 C4.30063449 25.5740959 4.40188137 29.3494836 4.5 33.125 C7.14 33.455 9.78 33.785 12.5 34.125 C12.6875 37 12.6875 37 12.5 40.125 C9.35543449 42.22137701 7.33905324 42.49056445 3.6328125 42.78125 C0.17611972 41.71765222 -1.72150241 39.14042317 -3.5 36.125 C-3.94328607 33.17872418 -4.11404034 30.8414701 -4.0234375 27.91796875 C-4.01873444 27.15196854 -4.01403137 26.38596832 -4.00918579 25.59675598 C-3.9879548 23.16772969 -3.93136884 20.74093709 -3.875 18.3125 C-3.85848172 16.66212989 -3.84413653 15.01173651 -3.83203125 13.36132812 C-3.68325096 0.18416255 -3.68325096 0.18416255 0 0 Z " fill="#FFFFFF" transform="translate(292.5,60.875)"/>
<path d="M0 0 C2.86942113 2.26533247 3.83907612 3.51722837 5 7 C5.1190686 8.78879802 5.17522113 10.5822856 5.1875 12.375 C5.20167969 13.31085938 5.21585938 14.24671875 5.23046875 15.2109375 C4.97696709 18.27873731 4.56539794 20.33929358 3 23 C0.13545142 24.14773232 -1.38275527 24.1998499 -4.31640625 23.25 C-9.7640409 20.21827289 -12.79024247 17.92616792 -15 12 C-15.29044358 7.91850332 -14.66927886 4.87006252 -12.125 1.5625 C-7.96492179 -1.49638104 -4.8863851 -1.11443871 0 0 Z M-6 6 C-6.66 6.66 -7.32 7.32 -8 8 C-8.06546898 10.51047485 -8.06546898 10.51047485 -7 13 C-4.53884453 14.84434349 -4.53884453 14.84434349 -2 16 C-2 13.36 -2 10.72 -2 8 C-3.32 7.34 -4.64 6.68 -6 6 Z " fill="#FFFFFF" transform="translate(31,110)"/>
<path d="M0 0 C3.21830373 2.20199729 3.88939752 3.60183107 4.9375 7.375 C5.01063139 11.61662038 4.4372021 13.54074541 2 17 C-2.91432042 20.59584421 -8.12534069 20.5752962 -14 20 C-15.70558443 18.29441557 -15.21230676 16.14005782 -15.25 13.8125 C-15.19532351 9.12854753 -14.82258053 5.89321453 -12 2 C-7.97007734 -1.47021118 -5.04169441 -1.37500757 0 0 Z M-6 6 C-8.36980013 8.95377498 -8.36980013 8.95377498 -8 13 C-6.05000871 12.80528889 -6.05000871 12.80528889 -4 12 C-2.71563266 10.0162233 -2.71563266 10.0162233 -2 8 C-3.32 7.34 -4.64 6.68 -6 6 Z " fill="#FFFFFF" transform="translate(151,111)"/>
<path d="M0 0 C3.49863793 3.03215287 5.78279496 5.08859567 6.3125 9.75 C5.8033471 15.04519011 3.19078214 17.97159724 -0.75 21.375 C-1.4925 21.91125 -2.235 22.4475 -3 23 C-7.42741644 21.64717831 -9.36309221 19.76701112 -12 16 C-13.8457676 12.30846481 -13.48175083 8.02978061 -13 4 C-9.49130263 -0.96057214 -5.69187832 -1.59372593 0 0 Z M-5 6 C-6.21690533 7.76529595 -6.21690533 7.76529595 -7 10 C-6.21690533 12.23470405 -6.21690533 12.23470405 -5 14 C-3.68 13.34 -2.36 12.68 -1 12 C-1.33 10.35 -1.66 8.7 -2 7 C-2.99 6.67 -3.98 6.34 -5 6 Z " fill="#FFFFFF" transform="translate(74,106)"/>
<path d="M0 0 C1.50433594 0.01353516 1.50433594 0.01353516 3.0390625 0.02734375 C3.80992187 0.03894531 4.58078125 0.05054688 5.375 0.0625 C6.69134956 4.61398961 6.39625107 8.87090805 6.1875 13.5625 C6.16880859 14.41714844 6.15011719 15.27179688 6.13085938 16.15234375 C5.9597402 20.00102407 5.8241072 22.39036678 3.65234375 25.640625 C0.89896646 27.35971477 -0.65617253 27.48191197 -3.875 27.3125 C-4.76703125 27.27640625 -5.6590625 27.2403125 -6.578125 27.203125 C-7.59132813 27.13351562 -7.59132813 27.13351562 -8.625 27.0625 C-8.955 25.7425 -9.285 24.4225 -9.625 23.0625 C-6.66835481 21.5841774 -3.88270263 22.00217217 -0.625 22.0625 C-0.295 21.0725 0.035 20.0825 0.375 19.0625 C-0.5325 19.289375 -1.44 19.51625 -2.375 19.75 C-5.625 20.0625 -5.625 20.0625 -7.9375 18.875 C-10.7048141 15.90269968 -10.5841821 13.62374614 -10.875 9.625 C-10.60803984 5.82081768 -9.91718534 4.05997314 -7.625 1.0625 C-4.98041621 -0.25979189 -2.94738699 -0.03427194 0 0 Z M-3.625 4.0625 C-5.92941554 7.51912331 -5.88360135 9.01107881 -5.625 13.0625 C-5.295 13.7225 -4.965 14.3825 -4.625 15.0625 C-2.975 14.7325 -1.325 14.4025 0.375 14.0625 C0.375 11.0925 0.375 8.1225 0.375 5.0625 C-0.945 4.7325 -2.265 4.4025 -3.625 4.0625 Z " fill="#FFFFFF" transform="translate(443.625,262.9375)"/>
<path d="M0 0 C1.65 0.33 3.3 0.66 5 1 C5.25401601 5.1238677 5.47400105 9.24885192 5.6875 13.375 C5.76033203 14.550625 5.83316406 15.72625 5.90820312 16.9375 C5.96298828 18.05898438 6.01777344 19.18046875 6.07421875 20.3359375 C6.16062622 21.89127197 6.16062622 21.89127197 6.2487793 23.47802734 C6.16668213 24.31027832 6.08458496 25.1425293 6 26 C5.01 26.66 4.02 27.32 3 28 C2.01 27.67 1.02 27.34 0 27 C-1.155 27.185625 -2.31 27.37125 -3.5 27.5625 C-7 28 -7 28 -10 26 C-11.44968953 21.65093142 -11.6434561 17.54034193 -11 13 C-8.8125 9.875 -8.8125 9.875 -6 8 C-3.1875 7.6875 -3.1875 7.6875 -1 8 C-0.67 5.36 -0.34 2.72 0 0 Z M-4 12 C-6.18331689 13.76136355 -6.18331689 13.76136355 -6.1953125 15.9453125 C-6.16050781 17.02425781 -6.16050781 17.02425781 -6.125 18.125 C-6.08375 19.40375 -6.0425 20.6825 -6 22 C-4.34385343 22.38218767 -2.67542976 22.71395102 -1 23 C0.23267348 21.99163938 0.23267348 21.99163938 0.09765625 19.93359375 C0.08605469 19.10988281 0.07445312 18.28617187 0.0625 17.4375 C0.05347656 16.61121094 0.04445313 15.78492188 0.03515625 14.93359375 C0.02355469 14.29550781 0.01195312 13.65742188 0 13 C-1.89179203 12.3185177 -1.89179203 12.3185177 -4 12 Z " fill="#FFFFFF" transform="translate(275,255)"/>
<path d="M0 0 C2.475 0.495 2.475 0.495 5 1 C5.33 5.29 5.66 9.58 6 14 C6.556875 13.01 7.11375 12.02 7.6875 11 C10 8 10 8 12.75 7.625 C13.4925 7.74875 14.235 7.8725 15 8 C13.87548273 10.9719385 12.77706209 13.33440687 11 16 C11.3609375 16.62648438 11.721875 17.25296875 12.09375 17.8984375 C12.5578125 18.71570313 13.021875 19.53296875 13.5 20.375 C13.9640625 21.18710937 14.428125 21.99921875 14.90625 22.8359375 C16 25 16 25 16 27 C14.68 27.33 13.36 27.66 12 28 C8 22.25 8 22.25 8 20 C7.01 20 6.02 20 5 20 C5 22.31 5 24.62 5 27 C4.01 27.33 3.02 27.66 2 28 C1.34 27.67 0.68 27.34 0 27 C0 18.09 0 9.18 0 0 Z " fill="#FFFFFF" transform="translate(212,255)"/>
<path d="M0 0 C1.65 0.33 3.3 0.66 5 1 C5.33 8.59 5.66 16.18 6 24 C-2.66839378 26.47668394 -2.66839378 26.47668394 -7 25 C-9.55090334 22.10897622 -9.97496607 20.28538677 -10.3125 16.4375 C-9.86528497 11.51813472 -9.86528497 11.51813472 -8 9 C-5.3794668 7.30933342 -4.17370278 7 -1 7 C-0.67 4.69 -0.34 2.38 0 0 Z M-3 11 C-5.41121859 12.95633975 -5.41121859 12.95633975 -5.125 16.625 C-5.08375 17.73875 -5.0425 18.8525 -5 20 C-2.525 20.495 -2.525 20.495 0 21 C1.46726798 17.18510326 0.43336419 14.70988378 -1 11 C-1.66 11 -2.32 11 -3 11 Z " fill="#FFFFFF" transform="translate(82,0)"/>
<path d="M0 0 C1.9375 1 1.9375 1 3 3 C3.59390664 5.71344502 3.81960655 8.20390151 4 11 C3 12 3 12 0.71484375 12.09765625 C-0.65994141 12.08025391 -0.65994141 12.08025391 -2.0625 12.0625 C-2.98160156 12.05347656 -3.90070313 12.04445313 -4.84765625 12.03515625 C-5.55792969 12.02355469 -6.26820313 12.01195312 -7 12 C-6.01 13.485 -6.01 13.485 -5 15 C-1.535 14.505 -1.535 14.505 2 14 C2.33 15.32 2.66 16.64 3 18 C-0.41540279 20.10178633 -3.02251415 20.56821226 -7 20 C-9.875 18.125 -9.875 18.125 -12 15 C-12.91011955 10.17240932 -12.62791634 6.30815904 -10.5 1.875 C-6.77081939 -0.92188546 -4.60133422 -0.58429641 0 0 Z M-6 4 C-6.33 5.32 -6.66 6.64 -7 8 C-5.02 8 -3.04 8 -1 8 C-1.33 6.68 -1.66 5.36 -2 4 C-3.32 4 -4.64 4 -6 4 Z " fill="#FFFFFF" transform="translate(297,263)"/>
<path d="M0 0 C12.3033675 -0.36544656 12.3033675 -0.36544656 14.90625 1 C16.67520732 4.23466482 16.30953066 7.60480506 16.1875 11.1875 C16.16719727 12.31188477 16.16719727 12.31188477 16.14648438 13.45898438 C16.11118539 15.30629767 16.05737917 17.15324066 16 19 C15.01 19.33 14.02 19.66 13 20 C12.34 19.67 11.68 19.34 11 19 C11 14.38 11 9.76 11 5 C9.02 5.33 7.04 5.66 5 6 C5 10.29 5 14.58 5 19 C4.01 19.33 3.02 19.66 2 20 C1.34 19.67 0.68 19.34 0 19 C0 12.73 0 6.46 0 0 Z " fill="#FFFFFF" transform="translate(243,263)"/>
<path d="M0 0 C3.5 0.5 3.5 0.5 5.9375 2 C8.21029038 5.63646461 7.78281164 8.25782535 7.5 12.5 C4.2 12.5 0.9 12.5 -2.5 12.5 C-1.51 13.985 -1.51 13.985 -0.5 15.5 C2.965 15.005 2.965 15.005 6.5 14.5 C6.83 15.82 7.16 17.14 7.5 18.5 C4.08442978 20.60188936 1.47827 20.9871351 -2.5 20.5 C-5.375 19.25 -5.375 19.25 -7.5 16.5 C-8.15510427 12.42126387 -8.29972223 8.55927974 -7.5 4.5 C-5.00207666 1.27687311 -4.10890472 0.58698639 0 0 Z M-1.5 4.5 C-1.83 5.82 -2.16 7.14 -2.5 8.5 C-0.52 8.5 1.46 8.5 3.5 8.5 C3.17 7.18 2.84 5.86 2.5 4.5 C1.18 4.5 -0.14 4.5 -1.5 4.5 Z " fill="#FFFFFF" transform="translate(473.5,262.5)"/>
<path d="M0 0 C3.1850357 1.76015131 3.83296972 2.49890916 5 6 C5.42152466 14.85201794 5.42152466 14.85201794 3 18 C0.30412197 20.09679403 -1.092944 19.99510821 -4.5625 19.8125 C-7.89475039 19.02487718 -9.05370761 18.70318387 -11 16 C-12.59453633 12.81092735 -12.38561702 9.47055318 -12 6 C-9.15150065 -0.08543043 -6.55257973 -0.45190205 0 0 Z M-5 4 C-7.31332486 7.46998729 -7.33957563 8.92509248 -7 13 C-6.01 14.485 -6.01 14.485 -5 16 C-3.02463255 15.65213292 -3.02463255 15.65213292 -1 15 C0.50662097 11.98675805 0.17770373 9.31713623 0 6 C-0.66 5.34 -1.32 4.68 -2 4 C-2.99 4 -3.98 4 -5 4 Z " fill="#FFFFFF" transform="translate(331,263)"/>
<path d="M0 0 C2.5 1.3125 2.5 1.3125 4 4 C4.8755718 9.42020637 4.96711868 13.54932198 1.875 18.1875 C-1.54984225 20.34663968 -3.03371841 20.82630866 -7 20 C-9.875 18.1875 -9.875 18.1875 -12 15 C-12.83363977 10.09964795 -12.95412984 5.70948264 -10.5 1.3125 C-6.92207519 -0.56591052 -3.95187168 -0.75312309 0 0 Z M-6 4 C-7.23267348 5.00836062 -7.23267348 5.00836062 -7.09765625 7.06640625 C-7.08605469 7.89011719 -7.07445312 8.71382813 -7.0625 9.5625 C-7.05347656 10.38878906 -7.04445313 11.21507812 -7.03515625 12.06640625 C-7.02355469 12.70449219 -7.01195312 13.34257812 -7 14 C-5.02 14.99 -5.02 14.99 -3 16 C-0.57479454 13.57479454 -0.31435559 12.37932259 0 9 C-0.84979475 6.24743756 -0.84979475 6.24743756 -2 4 C-3.32 4 -4.64 4 -6 4 Z " fill="#FFFFFF" transform="translate(425,263)"/>
<path d="M0 0 C2.75651413 1.66841645 3.7261692 2.98777029 4.56640625 6.09375 C5.17247537 9.92155499 5.28631128 12.3271685 3.75 15.9375 C1.38106125 18.72946352 -0.27994345 19.90807789 -3.9375 20.375 C-7.67686517 19.91711855 -8.6965709 18.90061443 -11 16 C-12.74330022 12.51339956 -12.5706106 8.80407065 -12 5 C-8.67935135 0.06933988 -5.83352544 -0.95457689 0 0 Z M-5 4 C-7.37198957 5.93602047 -7.37198957 5.93602047 -7.25 9.4375 C-7.28809647 13.10420618 -7.28809647 13.10420618 -5 16 C-3.02463255 15.65213292 -3.02463255 15.65213292 -1 15 C0.38550197 12.22899606 0.1877467 10.0665294 0 7 C-0.66 6.01 -1.32 5.02 -2 4 C-2.99 4 -3.98 4 -5 4 Z " fill="#FFFFFF" transform="translate(392,263)"/>
<path d="M0 0 C9.9609375 -0.1953125 9.9609375 -0.1953125 13 0 C16.02093215 3.02093215 15.46676834 6.56372072 15.625 10.625 C15.66367187 11.42679687 15.70234375 12.22859375 15.7421875 13.0546875 C15.83653931 15.03607556 15.91936215 17.01800645 16 19 C14.0625 19.5625 14.0625 19.5625 12 20 C10.12175109 18.12175109 10.60897603 14.96064724 10.4375 12.4375 C10.35371094 11.23996094 10.26992188 10.04242188 10.18359375 8.80859375 C10.12300781 7.88175781 10.06242187 6.95492188 10 6 C8.68 6 7.36 6 6 6 C5.67 10.29 5.34 14.58 5 19 C4.01 19.33 3.02 19.66 2 20 C1.34 19.67 0.68 19.34 0 19 C0 12.73 0 6.46 0 0 Z " fill="#FFFFFF" transform="translate(341,263)"/>
<path d="M0 0 C2.17578125 1.56640625 2.17578125 1.56640625 4 4 C4.390625 7.453125 4.390625 7.453125 4.25 11.25 C4.21390625 12.51328125 4.1778125 13.7765625 4.140625 15.078125 C4.07101563 16.52445313 4.07101563 16.52445313 4 18 C2.04196493 18.05389087 0.08351091 18.09274217 -1.875 18.125 C-3.51082031 18.15980469 -3.51082031 18.15980469 -5.1796875 18.1953125 C-8 18 -8 18 -10 16 C-10.3125 12.5 -10.3125 12.5 -10 9 C-6.5647952 6.70986347 -5.014669 6.82157027 -1 7 C-1.33 6.34 -1.66 5.68 -2 5 C-4.31 5 -6.62 5 -9 5 C-9 3.68 -9 2.36 -9 1 C-5.68377419 -0.1054086 -3.47482175 -0.35457365 0 0 Z M-4 10 C-4.66 11.32 -5.32 12.64 -6 14 C-5.01 14.33 -4.02 14.66 -3 15 C-2.34 13.68 -1.68 12.36 -1 11 C-1.99 10.67 -2.98 10.34 -4 10 Z " fill="#FFFFFF" transform="translate(102,7)"/>
<path d="M0 0 C1.60517097 0.08733576 3.20921662 0.19552224 4.8125 0.3125 C6.15248047 0.39951172 6.15248047 0.39951172 7.51953125 0.48828125 C10 1 10 1 11.84375 2.0625 C13.68427174 5.14661751 13.04977821 8.25387202 12.6875 11.6875 C12.62626953 12.38939453 12.56503906 13.09128906 12.50195312 13.81445312 C12.34897376 15.5442967 12.17637398 17.27238497 12 19 C10.0625 19.5625 10.0625 19.5625 8 20 C7 19 7 19 6.90234375 16.05859375 C6.91394531 14.86363281 6.92554688 13.66867188 6.9375 12.4375 C6.94652344 11.23996094 6.95554688 10.04242188 6.96484375 8.80859375 C6.97644531 7.88175781 6.98804688 6.95492188 7 6 C6.01 6.33 5.02 6.66 4 7 C3.34 10.63 2.68 14.26 2 18 C0.35 18 -1.3 18 -3 18 C-2.57045059 11.74892565 -1.98598493 5.95795479 0 0 Z " fill="#FFFFFF" transform="translate(156,11)"/>
<path d="M0 0 C2.4375 2 2.4375 2 4 5 C4.41685105 9.67706882 3.84796909 12.95250877 0.875 16.625 C-2.93456629 18.44696649 -4.98338319 18.19010868 -9 17 C-11.2423303 15.19166911 -11.87979527 13.94418878 -12.2421875 11.09765625 C-12.36761753 7.3556605 -12.36183656 4.07038753 -10 1 C-6.61629141 -1.53778144 -3.94318941 -1.23224669 0 0 Z M-5 3 C-7.18331689 4.76136355 -7.18331689 4.76136355 -7.1953125 6.9453125 C-7.16050781 8.02425781 -7.16050781 8.02425781 -7.125 9.125 C-7.08375 10.40375 -7.0425 11.6825 -7 13 C-5.68 13.33 -4.36 13.66 -3 14 C-0.70986347 10.5647952 -0.82157027 9.014669 -1 5 C-2.32 4.34 -3.64 3.68 -5 3 Z " fill="#FFFFFF" transform="translate(146,10)"/>
<path d="M0 0 C4.29 0 8.58 0 13 0 C15.02168235 4.0433647 15.35927761 6.32129345 15.625 10.75 C15.69976562 11.92046875 15.77453125 13.0909375 15.8515625 14.296875 C15.90054688 15.18890625 15.94953125 16.0809375 16 17 C14.68 17.33 13.36 17.66 12 18 C9.96834048 13.66579301 9.47939368 9.71403788 9 5 C8.01 5.33 7.02 5.66 6 6 C5.67 9.96 5.34 13.92 5 18 C3.68 18 2.36 18 1 18 C0.67 12.06 0.34 6.12 0 0 Z " fill="#FFFFFF" transform="translate(53,8)"/>
<path d="M0 0 C1.87109375 0.33203125 1.87109375 0.33203125 3.80859375 1.70703125 C6.45767189 5.75856252 6.4598766 9.59653489 5.87109375 14.33203125 C4.30859375 16.89453125 4.30859375 16.89453125 1.87109375 18.33203125 C-1.62890625 18.89453125 -1.62890625 18.89453125 -5.12890625 18.33203125 C-7.8445182 16.1734679 -8.93271959 14.5849506 -9.47265625 11.13671875 C-9.60912686 7.69083577 -9.38689696 4.99313244 -8.12890625 1.76953125 C-5.40388556 -0.18907737 -3.29732587 -0.16335376 0 0 Z M-3.75390625 4.39453125 C-5.51930643 6.4404688 -5.51930643 6.4404688 -4.81640625 10.01953125 C-4.58953125 11.11265625 -4.36265625 12.20578125 -4.12890625 13.33203125 C-2.47890625 13.66203125 -0.82890625 13.99203125 0.87109375 14.33203125 C1.80860091 10.66723052 2.15778219 8.93147071 0.49609375 5.45703125 C-0.30828125 4.40515625 -0.30828125 4.40515625 -1.12890625 3.33203125 C-2.31299933 3.24082302 -2.31299933 3.24082302 -3.75390625 4.39453125 Z " fill="#FFFFFF" transform="translate(23.12890625,10.66796875)"/>
<path d="M0 0 C1.32 0 2.64 0 4 0 C4.36372387 2.24847481 4.71564096 4.49886188 5.0625 6.75 C5.25972656 8.00296875 5.45695312 9.2559375 5.66015625 10.546875 C5.95080818 13.50016589 5.98935727 15.2602414 5 18 C4.360625 17.814375 3.72125 17.62875 3.0625 17.4375 C2.0415625 17.2209375 2.0415625 17.2209375 1 17 C0.67 17.33 0.34 17.66 0 18 C-3.4375 18.1875 -3.4375 18.1875 -7 18 C-9.84614024 15.15385976 -9.45579076 12.19630858 -9.625 8.375 C-9.66367187 7.66859375 -9.70234375 6.9621875 -9.7421875 6.234375 C-9.83647724 4.49001476 -9.91932891 2.74504309 -10 1 C-7.525 1.495 -7.525 1.495 -5 2 C-4.67 5.63 -4.34 9.26 -4 13 C-3.01 13 -2.02 13 -1 13 C-0.67 8.71 -0.34 4.42 0 0 Z " fill="#FFFFFF" transform="translate(43,9)"/>
<path d="M0 0 C2.32045815 1.5469721 2.85510163 2.53895974 3.6875 5.1875 C3.790625 5.785625 3.89375 6.38375 4 7 C2.35 7.33 0.7 7.66 -1 8 C-1.33 7.01 -1.66 6.02 -2 5 C-2.99 5 -3.98 5 -5 5 C-6.19988045 10.28199593 -6.19988045 10.28199593 -4 15 C-2.02 14.67 -0.04 14.34 2 14 C2.33 15.32 2.66 16.64 3 18 C-0.40424088 20.09491746 -3.03414842 20.49573145 -7 20 C-9.69391637 18.32540334 -10.74754409 16.98771072 -11.53515625 13.90625 C-12.17578165 9.48814378 -12.39160682 5.94615126 -10 2 C-6.30513897 -0.46324069 -4.36706908 -0.38991688 0 0 Z " fill="#FFFFFF" transform="translate(373,263)"/>
<path d="M0 0 C0.33 0.66 0.66 1.32 1 2 C0.67 2.66 0.34 3.32 0 4 C-2.0625 4.625 -2.0625 4.625 -4 5 C-4 5.99 -4 6.98 -4 8 C-2.68 8 -1.36 8 0 8 C0.33 9.32 0.66 10.64 1 12 C-0.65 12 -2.3 12 -4 12 C-3.855625 12.84304687 -3.71125 13.68609375 -3.5625 14.5546875 C-3.376875 15.65039062 -3.19125 16.74609375 -3 17.875 C-2.814375 18.96554688 -2.62875 20.05609375 -2.4375 21.1796875 C-2 24 -2 24 -2 26 C-3.65 26 -5.3 26 -7 26 C-7.33 21.71 -7.66 17.42 -8 13 C-8.99 13 -9.98 13 -11 13 C-11 11.68 -11 10.36 -11 9 C-10.34 9 -9.68 9 -9 9 C-9 6.69 -9 4.38 -9 2 C-5.86501708 0.14223235 -3.62528568 -0.20140476 0 0 Z " fill="#FFFFFF" transform="translate(11,4)"/>
<path d="M0 0 C1.32 0 2.64 0 4 0 C4 1.65 4 3.3 4 5 C5.65 5.33 7.3 5.66 9 6 C8.67 6.99 8.34 7.98 8 9 C6.68 9 5.36 9 4 9 C4.08708669 10.45945288 4.19526907 11.91765868 4.3125 13.375 C4.37050781 14.18710937 4.42851563 14.99921875 4.48828125 15.8359375 C4.82990528 18.37921338 4.82990528 18.37921338 8 20 C8 20.99 8 21.98 8 23 C2.55462185 23.36302521 2.55462185 23.36302521 0.28125 21.875 C-1.61409241 19.10132818 -1.07542619 17.09223964 -0.6875 13.8125 C-0.50767578 12.18248047 -0.50767578 12.18248047 -0.32421875 10.51953125 C-0.21722656 9.68808594 -0.11023438 8.85664063 0 8 C-0.99 8 -1.98 8 -3 8 C-3 7.01 -3 6.02 -3 5 C-2.01 5 -1.02 5 0 5 C0 3.35 0 1.7 0 0 Z " fill="#FFFFFF" transform="translate(112,3)"/>
<path d="M0 0 C1.66666667 0.33333333 3.33333333 0.66666667 5 1 C5.33 0.67 5.66 0.34 6 0 C7.66617115 -0.04063832 9.33388095 -0.042721 11 0 C11 1.65 11 3.3 11 5 C9.35 5.66 7.7 6.32 6 7 C5.67 10.96 5.34 14.92 5 19 C4.01 19.33 3.02 19.66 2 20 C1.34 19.67 0.68 19.34 0 19 C-0.1938211 16.02111874 -0.38035102 13.04209754 -0.5625 10.0625 C-0.61857422 9.21236328 -0.67464844 8.36222656 -0.73242188 7.48632812 C-0.80493164 6.27299805 -0.80493164 6.27299805 -0.87890625 5.03515625 C-0.9260376 4.2862915 -0.97316895 3.53742676 -1.02172852 2.76586914 C-1 1 -1 1 0 0 Z " fill="#FFFFFF" transform="translate(306,263)"/>
<path d="M0 0 C1.32 0 2.64 0 4 0 C4.01458252 0.65073486 4.02916504 1.30146973 4.04418945 1.97192383 C4.11864549 4.91938306 4.21531266 7.86570642 4.3125 10.8125 C4.33505859 11.83666016 4.35761719 12.86082031 4.38085938 13.91601562 C4.41630859 14.89892578 4.45175781 15.88183594 4.48828125 16.89453125 C4.51446533 17.80050049 4.54064941 18.70646973 4.56762695 19.63989258 C5.07516464 22.41028603 5.94355393 23.17064193 8 25 C8 25.66 8 26.32 8 27 C5.6875 27.625 5.6875 27.625 3 28 C2.01 27.34 1.02 26.68 0 26 C-0.34057617 23.38623047 -0.34057617 23.38623047 -0.29296875 20.1171875 C-0.2784668 18.36728516 -0.2784668 18.36728516 -0.26367188 16.58203125 C-0.23853516 15.35871094 -0.21339844 14.13539063 -0.1875 12.875 C-0.17396484 11.64394531 -0.16042969 10.41289062 -0.14648438 9.14453125 C-0.11103543 6.09592157 -0.06162079 3.048175 0 0 Z " fill="#FFFFFF" transform="translate(402,255)"/>
<path d="M0 0 C0.33 1.65 0.66 3.3 1 5 C-3.37619401 8.56578771 -7.26887234 10.47759397 -13 10 C-14 9 -14 9 -14.0625 6.4375 C-14.041875 5.633125 -14.02125 4.82875 -14 4 C-12.61518672 3.12808053 -11.21654754 2.27809616 -9.8125 1.4375 C-8.64654297 0.72400391 -8.64654297 0.72400391 -7.45703125 -0.00390625 C-4.51639033 -1.19605797 -2.99553637 -0.88855164 0 0 Z " fill="#FFFFFF" transform="translate(302,110)"/>
<path d="M0 0 C2.31 0.33 4.62 0.66 7 1 C7 6.94 7 12.88 7 19 C6.01 19.33 5.02 19.66 4 20 C3.34 19.67 2.68 19.34 2 19 C2 14.05 2 9.1 2 4 C1.34 4 0.68 4 0 4 C0 2.68 0 1.36 0 0 Z " fill="#FFFFFF" transform="translate(230,263)"/>
<path d="M0 0 C2.9375 0.375 2.9375 0.375 6 1 C7.59412284 4.18824568 7.10174735 7.62896662 7.0625 11.125 C7.05798828 11.87910156 7.05347656 12.63320313 7.04882812 13.41015625 C7.03703499 15.27347127 7.01909942 17.13674555 7 19 C6.01 19.33 5.02 19.66 4 20 C3.34 19.67 2.68 19.34 2 19 C1.62109375 16.015625 1.62109375 16.015625 1.4375 12.25 C1.22289002 8.06291555 0.9443581 4.08961689 0 0 Z " fill="#FFFFFF" transform="translate(454,263)"/>
<path d="M0 0 C5 1 5 1 6 2 C6.34568689 7.39881588 6.11582647 12.69982429 5 18 C3.68 18 2.36 18 1 18 C0.67 12.06 0.34 6.12 0 0 Z " fill="#FFFFFF" transform="translate(124,8)"/>
<path d="M0 0 C3.0625 0.1875 3.0625 0.1875 5.0625 2.1875 C5.3125 5.1875 5.3125 5.1875 5.0625 8.1875 C3.0625 10.1875 3.0625 10.1875 0.5625 10.4375 C-1.9375 10.1875 -1.9375 10.1875 -3.9375 8.1875 C-4.125 4.625 -4.125 4.625 -3.9375 1.1875 C-2.9375 0.1875 -2.9375 0.1875 0 0 Z " fill="#FFFFFF" transform="translate(291.9375,46.8125)"/>
<path d="M0 0 C2.5 0.25 2.5 0.25 4.5 2.25 C4.75 5.25 4.75 5.25 4.5 8.25 C3.84 8.91 3.18 9.57 2.5 10.25 C-1.125 9.875 -1.125 9.875 -4.5 9.25 C-4.625 5.875 -4.625 5.875 -4.5 2.25 C-2.5 0.25 -2.5 0.25 0 0 Z " fill="#FFFFFF" transform="translate(366.5,112.75)"/>
<path d="M0 0 C1.65 0.33 3.3 0.66 5 1 C5 2.32 5 3.64 5 5 C3.35 5 1.7 5 0 5 C-0.33 4.01 -0.66 3.02 -1 2 C-0.67 1.34 -0.34 0.68 0 0 Z " fill="#FFFFFF" transform="translate(232,256)"/>
<path d="M0 0 C2.475 0.495 2.475 0.495 5 1 C5 2.32 5 3.64 5 5 C3.35 5 1.7 5 0 5 C0 3.35 0 1.7 0 0 Z " fill="#FFFFFF" transform="translate(455,256)"/>
<path d="M0 0 C1.65 0 3.3 0 5 0 C5 1.65 5 3.3 5 5 C3.35 4.67 1.7 4.34 0 4 C0 2.68 0 1.36 0 0 Z " fill="#FFFFFF" transform="translate(125,2)"/>
</svg>
