<svg preserveAspectRatio="xMidYMid meet" viewBox="7.2 27.36 343.44 301.68" xmlns="http://www.w3.org/2000/svg" version="1.0" style="max-height: 500px" width="343.44" height="301.68">

<g stroke="none" fill="#000000" transform="translate(0.000000,360.000000) scale(0.100000,-0.100000)">
<path d="M1555 3289 c-261 -35 -525 -136 -704 -269 -85 -63 -195 -177 -228&#10;-237 l-22 -39 109 23 c304 64 578 101 815 110 151 5 161 5 185 -15 l25 -20 0&#10;-616 0 -616 60 0 60 0 0 614 c0 590 1 615 19 635 17 19 30 21 120 21 196 0&#10;537 -42 834 -103 89 -18 162 -31 162 -29 0 2 -20 32 -44 66 -158 221 -447 385&#10;-802 457 -86 17 -152 22 -314 25 -113 1 -236 -2 -275 -7z"/>
<path d="M1125 2684 c-208 -19 -558 -75 -578 -94 -17 -15 -26 -135 -16 -210&#10;20 -142 83 -263 204 -386 88 -90 211 -175 338 -233 81 -38 264 -101 292 -101&#10;17 0 20 11 85 303 60 269 110 553 110 620 0 62 -13 85 -57 103 -41 18 -170 17&#10;-378 -2z"/>
<path d="M2083 2686 c-41 -19 -53 -43 -53 -105 0 -68 39 -293 100 -572 73&#10;-339 75 -344 92 -347 29 -6 236 68 342 122 323 164 501 405 500 676 0 52 -5&#10;104 -12 116 -11 21 -26 25 -247 64 -284 49 -663 73 -722 46z"/>
<path d="M100 1055 l0 -125 118 0 118 0 0 -297 1 -298 166 0 167 -1 0 298 0&#10;298 120 0 120 0 0 125 0 125 -405 0 -405 0 0 -125z"/>
<path d="M1140 1150 c-5 -14 -74 -196 -154 -405 -79 -209 -147 -387 -150 -395&#10;-6 -14 13 -16 153 -16 l161 0 10 31 c6 16 43 122 81 234 39 113 74 212 79 220&#10;10 19 -1 45 105 -256 l78 -223 158 0 c88 0 159 3 159 6 0 3 -72 191 -160 417&#10;l-161 412 -174 0 -175 0 -10 -25z"/>
<path d="M1760 1055 l0 -125 120 0 120 0 0 -298 0 -297 165 -1 165 0 0 298 0&#10;298 120 0 120 0 0 125 0 125 -405 0 -405 0 0 -125z"/>
<path d="M2669 800 c-78 -206 -150 -395 -159 -420 l-18 -46 160 1 161 0 18 55&#10;c89 265 153 440 159 433 4 -4 45 -115 91 -245 l83 -238 158 0 c87 0 158 3 158&#10;8 0 4 -72 191 -159 416 l-159 408 -175 2 -176 1 -142 -375z"/>
</g>
</svg>