<svg version="1.0" xmlns="http://www.w3.org/2000/svg" width="2400.000000pt" height="596.000000pt" viewBox="0 0 2400.000000 596.000000" preserveAspectRatio="xMidYMid meet" style="width: 480px; height: auto;"> <g transform="translate(0.000000,596.000000) scale(0.100000,-0.100000)" fill="#000000" stroke="none" class=""> <path d="M12520 4623 c-346 -36 -734 -277 -908 -563 -93 -153 -99 -167 -150 -315 -81 -237 -67 -588 33 -842 122 -310 412 -594 715 -701 30 -11 71 -25 90 -32 117 -42 400 -63 535 -40 186 30 422 121 523 200 14 11 29 20 34 20 11 0 33 20 157 141 45 46 95 101 109 123 14 23 38 57 52 76 37 49 62 98 129 254 12 27 21 54 21 61 0 7 9 41 20 76 65 201 25 603 -79 804 -12 21 -21 44 -21 50 0 46 -289 405 -326 405 -7 0 -19 8 -26 18 -11 15 -91 70 -180 125 -30 19 -93 23 -103 7 -4 -6 -23 -17 -43 -25 -112 -47 -239 -181 -284 -299 -62 -162 -53 -190 67 -216 108 -23 233 -98 315 -190 56 -62 110 -152 110 -183 0 -10 8 -32 17 -50 29 -53 25 -292 -5 -377 -84 -236 -233 -384 -458 -456 -146 -46 -362 -27 -490 44 -17 9 -49 27 -70 39 -81 45 -194 170 -252 278 -210 394 -42 950 372 1231 118 81 305 168 387 180 24 4 53 11 64 17 11 6 71 15 133 21 62 6 114 15 115 21 6 27 -109 65 -283 95 -52 9 -245 11 -320 3z" stroke-width="1"></path> <path d="M15634 4556 c-208 -78 -334 -219 -375 -421 -17 -82 -19 -151 -19 -770 0 -815 -2 -800 93 -982 41 -78 143 -163 262 -218 l60 -28 801 1 c440 0 816 3 835 7 51 11 188 88 237 134 76 71 78 166 6 228 -67 59 -141 56 -219 -8 -97 -80 -24 -74 -840 -74 l-730 0 -55 27 c-67 32 -91 57 -124 128 l-26 55 0 719 0 719 28 55 c15 31 44 72 65 92 66 64 74 65 837 65 784 0 754 3 843 -81 107 -102 247 -81 283 42 13 46 13 59 2 90 -26 71 -215 213 -286 214 -15 0 -36 7 -46 15 -17 13 -128 15 -795 14 l-776 0 -61 -23z" stroke-width="1"></path> <path d="M6934 4319 c-204 -20 -304 -131 -312 -347 -5 -130 -11 -139 -92 -121 -67 15 -74 3 -71 -128 3 -128 7 -137 72 -128 95 13 89 31 88 -278 0 -150 -4 -346 -9 -437 -11 -220 -21 -207 157 -206 169 1 163 -4 152 161 -5 83 -13 663 -10 742 2 27 39 34 128 22 116 -15 123 -8 123 131 0 124 -1 125 -117 114 -137 -13 -143 -10 -143 67 0 120 109 176 247 127 80 -29 87 -23 108 96 18 107 19 127 3 149 -23 31 -185 49 -324 36z" stroke-width="1"></path> <path d="M4861 4278 c-4 -13 -2 -108 4 -213 16 -241 27 -225 -140 -195 -62 11 -227 -6 -268 -27 -131 -67 -242 -185 -274 -292 -7 -24 -19 -51 -25 -59 -26 -31 -17 -416 11 -487 69 -172 125 -238 271 -318 83 -46 296 -35 356 18 49 44 83 46 105 6 16 -28 18 -28 130 -33 63 -3 121 -2 129 3 13 7 15 80 12 576 -1 312 2 665 6 783 5 118 5 225 1 238 -8 21 -12 22 -159 22 -147 0 -151 -1 -159 -22z m-6 -678 c13 -11 15 -55 15 -302 l0 -289 -27 -26 c-103 -97 -237 -92 -332 13 -65 72 -86 137 -86 269 0 157 58 278 158 333 58 31 236 32 272 2z" stroke-width="1"></path> <path d="M18465 4080 c-114 -21 -198 -56 -269 -112 -27 -21 -51 -38 -55 -38 -9 0 -151 -166 -151 -177 0 -4 -8 -24 -18 -43 -61 -116 -61 -575 -1 -676 11 -17 19 -37 19 -43 0 -32 125 -170 195 -216 52 -35 90 -52 190 -88 135 -48 416 -21 495 48 14 13 40 19 68 16 21 -2 14 -84 -13 -143 -44 -97 -118 -162 -218 -192 -121 -37 -193 -29 -297 32 -118 70 -375 -3 -345 -98 13 -41 179 -158 287 -202 l103 -42 140 1 c298 3 486 134 609 426 26 61 35 157 41 442 3 149 8 286 11 306 16 98 -130 93 -264 -9 -30 -23 -69 -91 -87 -150 -11 -38 -109 -128 -172 -157 -160 -76 -383 -5 -474 152 l-34 58 0 185 c0 182 0 186 27 235 68 127 181 195 325 195 113 0 166 -22 254 -106 63 -59 89 -69 156 -60 102 14 162 120 124 219 -19 49 -167 158 -273 200 -49 19 -248 61 -269 56 -2 0 -49 -9 -104 -19z" stroke-width="1"></path> <path d="M20020 4080 c-115 -22 -184 -45 -227 -76 -17 -13 -35 -24 -39 -24 -21 0 -204 -193 -204 -216 0 -6 -9 -23 -20 -36 -10 -14 -24 -47 -30 -73 -6 -26 -15 -56 -21 -67 -21 -40 -11 -394 14 -479 13 -42 28 -83 34 -90 6 -8 14 -25 18 -39 13 -42 130 -171 178 -196 15 -8 27 -19 27 -24 0 -6 6 -10 13 -10 6 0 25 -7 41 -15 106 -56 176 -70 329 -68 105 2 157 7 180 17 18 8 48 22 67 31 19 9 47 23 62 31 63 35 85 -17 46 -109 -50 -118 -129 -194 -229 -222 -126 -36 -177 -29 -326 42 -71 35 -73 35 -137 24 -100 -18 -186 -74 -186 -122 0 -16 88 -98 155 -145 218 -152 566 -148 755 9 156 129 205 206 259 415 11 42 18 683 8 700 -17 27 -101 14 -186 -29 l-82 -41 -50 -104 c-56 -114 -88 -148 -189 -200 -105 -53 -265 -37 -361 38 -16 13 -41 33 -56 44 -52 40 -80 116 -91 244 -21 260 36 392 206 473 142 67 288 37 413 -84 57 -55 80 -64 143 -57 110 13 174 143 113 232 -38 58 -191 176 -226 176 -7 0 -25 7 -40 15 -29 15 -215 56 -248 54 -10 0 -61 -9 -113 -19z" stroke-width="1"></path> <path d="M21655 4093 c-73 -5 -210 -36 -226 -49 -8 -8 -25 -14 -36 -14 -11 0 -37 -13 -58 -30 -21 -16 -41 -30 -46 -30 -17 0 -167 -159 -193 -205 -59 -107 -70 -156 -74 -344 -4 -165 7 -310 26 -348 5 -10 22 -44 38 -76 71 -143 205 -256 364 -308 154 -50 462 -29 541 38 8 7 23 13 32 13 10 0 25 9 34 20 10 11 21 20 26 20 27 0 177 159 177 188 0 5 9 21 20 35 18 23 37 85 60 192 14 67 4 353 -14 404 -9 24 -16 53 -16 66 0 12 -18 47 -40 79 -22 31 -40 60 -40 65 0 28 -165 170 -242 208 -69 34 -270 91 -290 81 -1 -1 -21 -3 -43 -5z m178 -333 c170 -81 213 -173 205 -435 -6 -196 -34 -252 -173 -341 -79 -51 -248 -63 -326 -23 -179 90 -229 185 -224 424 5 204 54 297 195 370 91 47 231 49 323 5z" stroke-width="1"></path> <path d="M15888 4020 c-44 -35 49 -215 132 -258 44 -23 48 -23 325 -20 250 3 280 1 283 -13 3 -15 -35 -51 -208 -198 -59 -50 -97 -85 -235 -212 -87 -80 -127 -118 -286 -271 -74 -71 -76 -75 -89 -141 -19 -105 19 -183 111 -221 38 -16 1194 -27 1218 -11 51 31 -58 214 -160 269 l-52 29 -231 -7 c-127 -4 -273 -12 -324 -17 -70 -8 -97 -7 -108 2 -22 18 -17 54 9 66 12 6 51 37 87 69 36 33 90 80 120 106 53 45 115 103 320 301 53 51 122 116 153 145 55 51 107 139 107 181 0 52 -43 142 -83 173 -48 39 -8 36 -656 40 -357 3 -418 1 -433 -12z" stroke-width="1"></path> <path d="M17605 4033 c-36 -9 -113 -65 -147 -107 -70 -86 -68 -68 -68 -693 l0 -563 42 0 c84 0 194 74 239 162 20 39 21 56 24 537 1 273 6 528 10 567 10 95 -14 118 -100 97z" stroke-width="1"></path> <path d="M3315 3871 c-121 -15 -271 -118 -341 -233 -205 -338 -103 -775 220 -937 134 -67 373 -57 506 22 223 133 331 437 256 729 -78 309 -309 460 -641 419z m220 -274 c166 -94 205 -420 70 -588 -117 -148 -316 -117 -398 61 -70 150 -43 399 52 484 78 71 195 89 276 43z" stroke-width="1"></path> <path d="M5743 3870 c-39 -4 -77 -11 -84 -15 -6 -5 -40 -18 -74 -30 -68 -23 -151 -72 -160 -94 -3 -8 10 -40 29 -72 19 -31 37 -68 41 -81 17 -54 55 -64 102 -24 128 107 352 103 398 -7 27 -68 27 -75 1 -102 -23 -23 -32 -25 -120 -25 -143 0 -303 -50 -405 -126 -155 -116 -163 -383 -17 -526 91 -89 129 -103 281 -103 l130 0 63 38 c72 42 88 45 97 16 9 -28 34 -35 157 -43 146 -10 137 -33 126 314 -5 151 -6 313 -3 360 10 160 -23 307 -88 385 -102 122 -235 160 -474 135z m265 -653 c10 -8 11 -34 6 -111 -8 -112 -25 -151 -72 -163 -15 -3 -43 -14 -62 -25 -123 -65 -287 56 -235 173 32 70 105 110 245 133 75 13 94 11 118 -7z" stroke-width="1"></path> <path d="M7653 3870 c-168 -23 -314 -159 -401 -370 -38 -91 -41 -357 -5 -457 38 -105 119 -236 156 -252 4 -1 16 -11 25 -21 9 -9 53 -37 97 -61 l80 -44 165 0 c184 0 187 1 310 81 114 75 204 223 231 378 20 116 5 344 -27 393 -8 12 -14 29 -14 36 0 53 -135 206 -234 265 -84 51 -240 72 -383 52z m202 -260 c189 -72 241 -447 85 -613 -147 -156 -339 -87 -414 148 -20 62 -21 192 -2 242 8 21 17 51 21 67 8 38 49 91 103 132 48 36 145 48 207 24z" stroke-width="1"></path> <path d="M9035 3870 c-63 -10 -153 -48 -175 -75 -23 -28 -58 -19 -74 20 -13 30 -20 35 -48 36 -18 0 -73 4 -121 7 -49 4 -93 4 -99 1 -8 -5 -16 -1080 -9 -1175 1 -8 45 -12 146 -12 189 -1 174 -24 164 273 -4 127 -8 304 -10 393 l-2 164 35 32 c69 63 120 86 193 86 119 0 176 -54 206 -192 12 -57 6 -573 -8 -674 -10 -72 8 -81 171 -82 158 -1 163 2 152 92 -4 28 -8 213 -11 411 -4 388 -9 422 -67 529 -71 132 -244 196 -443 166z" stroke-width="1"></path> <path d="M10141 3869 c-35 -4 -71 -15 -80 -24 -10 -8 -21 -15 -26 -15 -37 0 -184 -134 -224 -204 -71 -125 -97 -316 -71 -508 27 -189 150 -353 320 -425 84 -36 417 -43 477 -10 18 9 41 17 51 17 36 0 133 51 144 76 9 19 5 37 -21 101 -18 43 -37 93 -42 111 -13 41 -33 41 -89 1 -61 -44 -207 -83 -281 -75 -148 15 -242 89 -277 218 -19 70 -33 68 382 58 203 -5 373 -7 379 -3 25 15 -20 322 -60 403 -35 70 -82 136 -118 165 -20 17 -48 40 -61 53 -14 12 -32 22 -40 22 -8 0 -25 7 -37 15 -46 30 -197 41 -326 24z m177 -243 c89 -15 192 -170 144 -218 -6 -6 -84 -11 -212 -12 l-202 -2 -16 24 c-35 53 83 195 178 213 34 6 42 6 108 -5z" stroke-width="1"></path> <path d="M1622 3853 c-12 -20 -4 -50 20 -85 10 -14 18 -28 18 -31 0 -3 27 -61 59 -130 33 -68 64 -142 70 -163 6 -21 18 -48 26 -58 8 -11 15 -26 15 -33 0 -8 16 -45 35 -84 19 -39 35 -76 35 -83 0 -6 7 -24 16 -41 8 -16 27 -59 41 -95 14 -36 36 -88 49 -116 13 -28 24 -57 24 -63 0 -7 6 -25 14 -39 8 -15 21 -48 30 -73 29 -81 27 -80 161 -81 66 0 125 1 131 1 13 1 35 51 99 221 26 69 55 143 65 165 10 22 30 71 45 109 15 38 31 77 35 85 4 9 20 50 35 91 30 82 59 150 81 192 8 14 14 32 14 40 0 7 25 63 55 123 82 164 84 161 -105 156 -154 -3 -171 -11 -189 -85 -11 -45 -42 -138 -88 -261 -37 -98 -52 -141 -64 -180 -41 -143 -82 -235 -105 -235 -16 0 -49 69 -64 135 -5 23 -16 54 -25 71 -8 16 -15 37 -15 46 0 9 -6 29 -14 45 -8 15 -26 62 -41 103 -15 41 -33 86 -40 100 -7 14 -15 39 -19 55 -4 17 -13 44 -21 60 -8 17 -19 48 -25 71 -16 67 -26 71 -197 77 -133 5 -154 4 -161 -10z" stroke-width="1"></path>  </g> </svg>